<?xml version="1.0" encoding="utf-8"?>
<!-- Generator: Adobe Illustrator 13.0.0, SVG Export Plug-In . SVG Version: 6.00 Build 14948)  -->
<!DOCTYPE svg PUBLIC "-//W3C//DTD SVG 1.1//EN" "http://www.w3.org/Graphics/SVG/1.1/DTD/svg11.dtd">
<svg version="1.1" id="Layer_1" xmlns="http://www.w3.org/2000/svg" xmlns:xlink="http://www.w3.org/1999/xlink" x="0px" y="0px"
	 width="250px" height="400px" viewBox="0 0 250 400" enable-background="new 0 0 250 400" xml:space="preserve">
<g>
	<path fill-rule="evenodd" clip-rule="evenodd" fill="#2B2B2B" stroke="#97D300" stroke-width="0.25" d="M120.521,355.056
		c-16.763,2.813-33.458,5.831-46.957,18.636c12.109-29.049-10.938-72.838-47.053-70.06c15.792,1.295,33.36,12.864,41.938,25.424
		c0.559,4.778,3.785,9.416,4.891,14.963c1.842,9.235,2.392,21.523-1.514,30.149c-0.713,1.576-1.925,6.482-4.934,5.19
		c7.257-20.953,0.006-54.558-27.678-57.15c15.073,4.082,25.168,16.367,25.137,27.635c0.816,0.574,2.237,0.983,2.022,1.842
		c-0.417,1.118-0.436,4.535-2.326,4.475c-2.902-6.529-20.216-17.36-22.575-6.756c2.142,1.242,4.122,1.982,5.788,1.77
		c-0.706-1.245,1.061-3.169,0.879-4.557c13.848,4.453,16.964,15.734,17.32,25.462c-1.218,5.496-1.712,16.66-8.439,19.1
		c3.383-12.594,2.536-29.964-12.732-36.414c1.605,2.764,0.498,7.134-3.319,7.675c-0.28,0.371-0.603,0.702-0.983,0.959
		c0.354,1.138,0.315,2.443-0.335,3.793c-1.723,3.578-4.066,6.798-5.714,10.414c2.952,1.331,3.509,5.446,1.661,7.823
		c0.304,1.914-0.367,4.01-2.01,5.116c0.097,0.236,0.177,0.479,0.239,0.729c0.168,0.201,0.313,0.419,0.445,0.645
		c3.13,2.354,2.385,8.464-2.229,9.035c1.454,1.824,3.643,3.446,5.251,5.228c-0.614,1.021-2.116-0.672-2.609,0.716
		c2.952-0.043,2.819,1.597,2.599,3.604c0.53-1.277,1.398-1.517,2.608-0.715c5.986,7.793-6.438,16.839-15.518,15.719
		c-0.019,0.833-0.119,1.655-0.323,2.464c4.523-0.357,9.137-2.213,13.786-5.631c3.045-0.056,9.938-0.775,10.417,4.338
		c-1.222,1.095-3.212-0.169-4.059,2.071c0.385,0.374,0.429,0.842-0.004,1.441c0.518,1.716,2.593,1.787,4.051,2.245
		c4.047-6.982-2.604-11.529-7.793-12.249c4.02-1.081,13.747-3.131,18.243,0.75c4.809,4.153,0.158,6.584-2.339,10.232
		c1.158,0.482,0.948,1.34,2.022,1.844c8.777-7.415-1.767-17.602-11.838-15.936c0.791-10.653,11.579-0.611,13.913-5.257
		c1.007,2.836,2.122,0.72,2.896,0.166c3.925,5.233,8.641,3.329,11.854,8.738c1.094-0.736-0.761-2.832,1.164-2.237
		c3.036,2.044,2.461,5.079,2.588,7.923c5.406-9.316-5.701-14.104-11.829-20.256c3.004-1.017,4.8-0.174,5.219-2.869
		c5.562,3.605,7.325,2.417,13.021,5.06c1.175,0.215,1.335-2.68,2.611-2.153c2.858,1.501,5.939,3.68,8.389,3.931
		c1.535-1.857-2.871-2.089-0.859-4.079c7.263,3.123,8.983,7.766,8.95,12.892c6.949-9.671-6.139-18.045-14.716-24.739
		c5.935,0.23,13.127-1.593,15.366-8.051c3.797,0.488,7.363-7.392,8.134-11.342c-0.807,0.914-0.967,3.807-2.612,2.153
		c-1.617-0.994,2.496-3.563,0.881-4.557c-3.612,4.408-7.478,8.041-12.472,8.217c-4.665-6.383,4.808-9.444,8.712-11.022
		c-1.48-1.032-4.522,0.502-4.92-2.007C109.225,365.899,117.098,361.012,120.521,355.056z"/>
	<path fill="#2B2B2B" stroke="#97D300" stroke-width="0.25" d="M120.506,354.975c-10.231,1.715-20.445,3.511-29.926,7.563
		c-5.946,2.544-11.605,5.975-16.796,10.833c4.846-11.951,3.813-26.319-1.57-38.917c-7.735-18.09-24.463-32.539-45.708-30.905
		l0.002,0.164c15.758,1.289,33.315,12.85,41.876,25.388c0.551,4.771,3.78,9.406,4.875,14.934c1.843,9.223,2.389,21.5-1.506,30.098
		c-0.554,1.242-1.43,4.478-3.153,5.204c-0.465,0.197-0.992,0.22-1.608-0.023c3.772-10.957,3.595-25.333-1.374-36.956
		c-4.552-10.649-13.143-18.991-26.398-20.232l-0.024,0.16c11.22,3.038,19.673,10.631,23.226,18.952
		c1.213,2.833,1.857,5.751,1.849,8.604l0.001,0.04l0.033,0.028c0.686,0.471,1.753,0.851,1.966,1.378
		c0.048,0.114,0.06,0.235,0.026,0.376c-0.366,1.015-0.452,3.8-1.717,4.318c-0.144,0.061-0.303,0.095-0.483,0.097
		c-2.402-5.268-13.878-13.198-19.683-10.747c-1.456,0.621-2.544,1.913-3.018,4.053l-0.014,0.06l0.052,0.029
		c2.15,1.246,4.141,1.995,5.84,1.78l0.109-0.015l-0.051-0.103c-0.022-0.044-0.041-0.084-0.058-0.121
		c-0.506-1.124,1.016-2.898,0.955-4.284c7.938,2.582,12.306,7.417,14.655,12.911c1.711,4.003,2.346,8.354,2.497,12.436
		c-1.186,5.385-1.708,16.195-8.007,18.871c-0.077,0.034-0.154,0.065-0.234,0.097c2.009-7.58,2.495-16.855-0.757-24.461
		c-2.167-5.07-6.026-9.376-12.168-11.938c0.05,0.079,0.099,0.159,0.144,0.241c5.983,2.558,9.748,6.781,11.878,11.76
		c3.251,7.605,2.746,16.925,0.707,24.507l-0.043,0.156l0.148-0.055c0.132-0.05,0.264-0.102,0.39-0.156
		c6.428-2.763,6.905-13.633,8.1-19.003c-0.147-4.115-0.783-8.488-2.506-12.518c-2.375-5.557-6.818-10.456-14.87-13.042l-0.118-0.038
		l0.017,0.126c0.188,1.28-1.478,3.123-0.935,4.454c0.003,0.009,0.007,0.018,0.012,0.026c-1.599,0.163-3.507-0.548-5.573-1.741
		c0.475-2.065,1.519-3.283,2.912-3.882c5.645-2.442,17.212,5.523,19.496,10.709l0.022,0.049l0.051,0.002
		c0.22,0.006,0.42-0.033,0.598-0.109c1.408-0.622,1.432-3.456,1.803-4.417c0.048-0.181,0.032-0.345-0.031-0.489
		c-0.283-0.632-1.329-0.974-1.985-1.424c0-2.863-0.647-5.791-1.86-8.63c-3.485-8.145-11.616-15.578-22.428-18.785
		c12.661,1.534,20.898,9.675,25.329,20.033c4.962,11.603,5.13,25.982,1.345,36.91l-0.025,0.07l0.072,0.031
		c0.679,0.293,1.281,0.277,1.802,0.055c1.837-0.797,2.68-4.072,3.235-5.285c3.917-8.654,3.363-20.952,1.518-30.197
		c-1.112-5.568-4.336-10.21-4.889-14.957c-8.426-12.351-25.442-23.702-40.998-25.399c20.683-1.102,36.945,13.116,44.536,30.87
		c5.425,12.685,6.415,27.17,1.424,39.141l0.129,0.093c5.252-4.982,10.988-8.48,17.025-11.063c9.407-4.021,19.547-5.818,29.716-7.523
		c-2.748,4.67-8.247,8.678-13.57,10.951c-1.354,0.579-2.699,1.047-3.986,1.388l-0.067,0.016l0.012,0.073
		c0.033,0.214,0.087,0.399,0.158,0.563c0.784,1.752,3.345,0.644,4.667,1.416c-0.82,0.327-1.868,0.718-2.968,1.188
		c-3.781,1.623-8.291,4.188-6.508,8.395c0.206,0.481,0.495,0.982,0.874,1.505l0.025,0.034h0.043
		c1.403-0.051,2.718-0.371,3.962-0.904c3.199-1.369,5.928-4.131,8.521-7.287c0.121,0.087,0.197,0.18,0.241,0.282
		c0.44,0.901-1.974,2.703-1.542,3.839c0.064,0.152,0.185,0.286,0.361,0.398c0.465,0.468,0.853,0.596,1.172,0.459
		c0.651-0.3,0.907-1.57,1.322-2.313c-0.779,3.464-3.452,9.378-6.463,10.654c-0.495,0.213-0.997,0.298-1.502,0.237l-0.063-0.01
		l-0.021,0.061c-1.125,3.25-3.513,5.314-6.373,6.538c-2.777,1.189-5.998,1.572-8.916,1.46l-0.25-0.01l0.201,0.156
		c5.699,4.443,13.375,9.634,15.841,15.41c1.22,2.859,1.18,5.849-0.997,9.009c-0.01-1.952-0.283-3.836-1.035-5.593
		c-1.189-2.782-3.573-5.235-7.966-7.119l-0.048-0.021l-0.036,0.038c-0.556,0.541-0.654,0.996-0.487,1.382
		c0.308,0.685,1.353,1.117,1.596,1.716c0.108,0.261,0.089,0.551-0.23,0.956c-2.407-0.266-5.471-2.422-8.318-3.919
		c-0.23-0.098-0.436-0.096-0.61-0.019c-0.753,0.345-1.052,1.872-1.698,2.126c-0.1,0.043-0.205,0.058-0.328,0.039
		c-5.7-2.646-7.449-1.454-12.989-5.05l-0.102-0.066l-0.018,0.12c-0.182,1.13-0.58,1.596-1.217,1.87
		c-0.867,0.375-2.208,0.347-3.952,0.937l-0.123,0.04l0.093,0.096c4.169,4.181,10.609,7.73,12.618,12.441
		c0.927,2.175,0.93,4.593-0.664,7.47c-0.055-1.798,0.12-3.672-0.586-5.326c-0.374-0.877-0.998-1.688-2.029-2.378
		c-0.404-0.127-0.649-0.149-0.821-0.079c-0.631,0.375,0.348,1.72-0.362,2.27c-3.256-5.363-7.954-3.499-11.816-8.671l-0.048-0.063
		l-0.063,0.045c-0.415,0.3-0.907,0.996-1.394,1.2c-0.396,0.161-0.782,0.063-1.233-0.962c-0.047-0.111-0.095-0.234-0.145-0.364
		l-0.067-0.172l-0.079,0.161c-0.262,0.52-0.626,0.844-1.078,1.036c-2.411,1.054-7.3-1.9-10.339-0.619
		c-1.338,0.572-2.29,1.98-2.504,4.869l-0.009,0.105l0.103-0.019c4.398-0.729,8.893,0.822,11.802,3.407
		c-4.701-3.494-14.009-1.503-17.925-0.455l0.011,0.158c3.275,0.452,7.137,2.446,8.477,5.59c0.767,1.794,0.729,3.969-0.714,6.484
		c-1.399-0.423-3.262-0.541-3.848-1.941c-0.026-0.063-0.052-0.127-0.074-0.194c0.301-0.429,0.373-0.817,0.229-1.152
		c-0.05-0.116-0.125-0.225-0.222-0.322c0.268-0.672,0.631-0.997,1.049-1.176c0.732-0.318,1.658-0.155,2.452-0.489
		c0.184-0.078,0.357-0.185,0.518-0.327c-0.022-0.606-0.145-1.082-0.324-1.505c-1.577-3.639-7.428-3.02-10.148-2.975
		c-2.223,1.615-4.394,2.872-6.551,3.795c-2.425,1.037-4.83,1.632-7.211,1.823c-0.014,0.057-0.023,0.112-0.038,0.168
		c2.416-0.19,4.856-0.788,7.313-1.84c2.17-0.928,4.349-2.189,6.537-3.798c2.697-0.048,8.483-0.596,9.952,2.889
		c0.174,0.405,0.289,0.865,0.337,1.389c-0.121,0.061-0.278,0.156-0.449,0.229c-0.732,0.319-1.658,0.156-2.452,0.49
		c-0.463,0.197-0.875,0.579-1.152,1.314l-0.02,0.051l0.04,0.041c0.103,0.096,0.178,0.197,0.224,0.306
		c0.118,0.274,0.065,0.603-0.239,1.024l-0.023,0.032l0.013,0.041c0.026,0.086,0.058,0.171,0.092,0.249
		c0.671,1.545,2.648,1.612,4.012,2.051l0.059,0.019l0.033-0.055c1.493-2.568,1.546-4.826,0.753-6.683
		c-1.332-3.101-4.993-5.07-8.218-5.628c4.212-1.103,13.493-2.896,17.795,0.832c0.94,0.81,1.511,1.553,1.807,2.243
		c1.216,2.789-2.129,4.932-4.163,7.881l-0.057,0.084l0.098,0.039c1.112,0.449,0.897,1.299,2.019,1.84l0.046,0.022l0.036-0.031
		c3.397-2.868,3.932-6.182,2.701-9.05c-1.955-4.562-8.3-8.021-14.503-7.045c0.232-2.791,1.147-4.092,2.401-4.632
		c2.917-1.264,7.784,1.69,10.34,0.62c0.434-0.186,0.801-0.493,1.073-0.955c0.028,0.071,0.057,0.142,0.084,0.207
		c0.447,1.045,0.962,1.254,1.445,1.049c0.524-0.228,0.99-0.875,1.363-1.17c3.962,5.189,8.648,3.323,11.803,8.666l0.043,0.072
		l0.068-0.047c0.926-0.673-0.075-2.204,0.407-2.302c0.103-0.047,0.321-0.041,0.691,0.075c0.985,0.663,1.583,1.446,1.947,2.294
		c0.719,1.686,0.498,3.651,0.583,5.552l0.012,0.283l0.137-0.244c1.753-3.015,1.786-5.581,0.81-7.859
		c-2.04-4.759-8.415-8.277-12.559-12.4c1.66-0.543,2.94-0.518,3.84-0.898c0.66-0.278,1.101-0.799,1.29-1.874
		c5.501,3.54,7.292,2.384,12.929,5.001c0.171,0.032,0.31,0.011,0.434-0.042c0.755-0.346,1.053-1.872,1.699-2.127
		c0.139-0.057,0.289-0.063,0.483,0.016c2.846,1.493,5.924,3.681,8.411,3.938l0.042,0.004l0.026-0.032
		c0.368-0.44,0.421-0.829,0.278-1.157c-0.306-0.688-1.352-1.118-1.595-1.716c-0.128-0.304-0.083-0.654,0.414-1.164
		c4.335,1.87,6.663,4.281,7.829,7.01c0.772,1.807,1.035,3.753,1.022,5.784l-0.003,0.258l0.148-0.207
		c2.351-3.27,2.427-6.416,1.159-9.377c-2.478-5.783-10.023-10.913-15.694-15.321c2.869,0.08,6.009-0.316,8.737-1.48
		c2.87-1.228,5.287-3.309,6.438-6.571c0.516,0.052,1.026-0.043,1.521-0.256c3.233-1.395,5.962-7.73,6.637-11.157l0.057-0.29
		l-0.195,0.217c-0.59,0.688-0.859,2.342-1.486,2.588c-0.234,0.1-0.544,0.027-1.01-0.438c-0.172-0.109-0.262-0.217-0.313-0.332
		c-0.44-0.907,1.971-2.708,1.542-3.84c-0.064-0.153-0.188-0.286-0.366-0.396l-0.057-0.037l-0.045,0.056
		c-2.598,3.17-5.328,5.938-8.506,7.294c-1.216,0.521-2.497,0.837-3.864,0.891c-0.36-0.503-0.634-0.979-0.83-1.437
		c-1.714-4.038,2.631-6.557,6.426-8.181c1.163-0.497,2.265-0.904,3.109-1.246l0.135-0.058l-0.123-0.085
		c-1.435-0.965-4.07,0.219-4.738-1.429c-0.056-0.132-0.103-0.282-0.134-0.452c1.272-0.34,2.6-0.804,3.936-1.374
		c5.405-2.313,10.987-6.391,13.735-11.171l0.086-0.148L120.506,354.975z M60.982,424.083c1.194,2.801,0.701,5.995-2.621,8.829
		c-0.95-0.46-0.802-1.274-1.888-1.781c1.905-2.751,5.079-4.827,4.253-7.588C60.821,423.722,60.904,423.901,60.982,424.083z"/>
	<path fill="#2B2B2B" stroke="#97D300" stroke-width="0.25" d="M41.001,411.491c-0.253-0.59-0.6-1.181-1.045-1.758
		c-0.702-0.471-1.299-0.61-1.798-0.4c-0.292,0.127-0.539,0.369-0.746,0.723c0.078-0.801,0.106-1.53-0.138-2.105
		c-0.3-0.711-1.021-1.144-2.466-1.138c0.091-0.201,0.205-0.308,0.333-0.362c0.471-0.222,1.265,0.33,1.869,0.092
		c0.134-0.058,0.258-0.16,0.352-0.319l0.031-0.052l-0.041-0.048c-1.607-1.773-3.767-3.391-5.208-5.187
		c-0.061,0.009-0.119,0.021-0.182,0.028c1.448,1.836,3.624,3.454,5.229,5.221c-0.074,0.103-0.156,0.166-0.247,0.204
		c-0.469,0.223-1.263-0.329-1.868-0.092c-0.197,0.084-0.36,0.263-0.466,0.566l-0.042,0.114l0.12-0.004
		c1.51-0.021,2.159,0.392,2.438,1.038c0.268,0.618,0.187,1.5,0.077,2.476l0.156,0.043c0.23-0.56,0.52-0.9,0.864-1.046
		c0.426-0.185,0.963-0.075,1.627,0.365c0.418,0.549,0.759,1.126,1.005,1.704c2.086,4.914-2.37,10.026-8.112,12.48
		c-2.714,1.158-5.689,1.714-8.368,1.377c-0.001,0.055-0.001,0.11-0.002,0.165c2.711,0.333,5.714-0.232,8.435-1.392
		C38.578,421.712,43.153,416.548,41.001,411.491z"/>
</g>
<g>
	<g>
		<path fill-rule="evenodd" clip-rule="evenodd" fill="#2B2B2B" stroke="#97D300" stroke-width="0.25" d="M14.12,28.22
			c1.255,0.063-0.409,2.576-1.32,2.64c0.447,1.443,2.193-1.251,2.64-1.98c0.463,3.116-3.933,7.057-4.62,11.22
			c2.32-2.959,4.405-6.155,6.6-9.24c1.236,2.142-2.472,4.987-3.3,7.26c1.126-0.798,6.621-4.406,5.28-7.92
			c1.533,0.447,1.767,2.193,3.3,2.64c-0.41-2.451-3.252-2.468-2.64-5.94c0.533,0.567,1.808,0.392,1.98,1.32
			c1.57-0.194-0.733-1.786-1.32-1.98c1.058-1.854,2.467,1.431,3.96,1.32c-0.988-0.992-1.181-2.779-2.64-3.3
			c0.554-2.662,3.802-0.575,1.32-3.3c1.512-2.308,1.834,2.063,3.3,1.98c-0.562-1.858-2.132-2.708-1.98-5.28
			c2.317-0.117,2.171,2.229,3.96,2.64c-0.707-1.494-1.498-2.902-2.64-3.96c0.989-1.579,3.303,1.045,3.3,2.64
			c1.76-1.379-1.645-3.151-1.32-5.28c1.741-0.201,1.702,1.378,1.98,2.64c1.923-0.926-1.17-2.274-0.66-3.96
			c0.966,0.574,2.092,0.988,1.98,2.64c1.612-0.421,0.1-3.085-0.66-3.3c1.993-1.519,2.644,3.931,3.96,5.28
			c0.716-1.189-0.888-5.687-1.98-7.26c1.87-1.396,2.796,3.778,3.3,5.94c2.021-2.065-0.578-5.109,0-7.92
			c1.286,2.014,2.196,4.404,1.98,7.92c3.191-2.533-0.214-5.052,0.66-9.24c0.979,0.561,1.419,1.661,1.32,3.3
			c1.431,0.111,0.299-2.341,0.66-3.3c0.651-1.446,1.158,2.74,1.32,3.96c1.498-0.702,0.251-4.149,0.66-5.94
			c1.687,0.074,1.31,2.21,1.32,3.96c2.042-0.158-1.032-5.432,1.98-4.62c0,1.54,0,3.08,0,4.62c1.422-0.558,1.065-2.895,1.98-3.96
			c1.544,0.169,0.38,2.9,0,3.3c0.683,1.272,2.617-1.731,3.3-2.64c0.499,1.841-2.265,6.079-3.96,7.92c0.434,1.977,1.411-0.631,2.64,0
			c-1.481,1.599-3.396,2.764-4.62,4.62c2.079,0.319,1.494-2.026,3.96-1.32c-0.484,0.616-1.2,1-1.98,1.32
			c3.136,3.575,10.996-0.56,14.52,3.3c-2.535,1.332,1.15,3.344,0,4.62c0.312,2.698-1.776,0.098-1.98-0.66
			c-1.402,0.211,0.942,2.043,1.32,2.64c-1.808,0.685-3.835-4.067-5.94-5.28c-0.896,0.204-0.547,1.652-0.66,2.64
			c-0.981-0.559-0.956-2.125-1.32-3.3c-5.85-1.512-7.569,3.785-12.54,7.26c1.892-1.188,4.421-1.739,5.94-3.3
			c0.579,1.053-3.042,3.532-5.28,3.96c1.856,1.066,4.722-1.728,1.32,1.32c0.159,1.701,1.136-0.907,2.64,0
			c-0.661,1.758-2.664,2.176-3.96,3.3c0.288,0.979,0.845-0.26,1.98,0c-1.116,2.184-3.554,3.046-5.28,4.62
			c0.824,1.414,2.705-1.643,4.62-1.32c-1.107,2.192-4.368,2.232-5.28,4.62c1.958-0.65,3.256-0.934,3.96-1.32
			c1.583,0.586-1.435,2.009-2.64,1.98c9.605,4.641,16.572-1.56,27.72-0.66c0.349,0.531,0.688,1.071,0.66,1.98
			c-0.258-3.998,4.024-3.456,4.62-6.6c1.157,0.604,2.293,1.227,1.98,3.3c1.875,0.115-0.798-4.318,1.98-3.3c0,1.1,0,2.2,0,3.3
			c0.981-0.999,1.063-2.897,1.32-4.62c1.476,0.284,0.267,3.252,0.66,4.62c0.981-0.559,0.955-2.125,1.32-3.3
			c0.773,0.107,0.557,1.204,0.66,1.98c0.886-0.434,1.229-1.411,1.32-2.64c1.996,0.999-0.547,2.896,0,4.62
			c1.26-1.379,2.128-3.151,2.64-5.28c1.789,1.199-0.365,3.982-0.66,5.28c1.906-0.954,2.546-3.173,3.96-4.62
			c1.79,0.994-1.05,2.847-1.32,3.96c1.798-1.502,3.678-2.922,5.28-4.62c4.868,1.358,14.287,0.835,21.78,3.96
			c-12.959-1.049-29.426,3.376-36.96,11.88c3.18-0.999,2.838-0.017,6.6,0c-0.288,0.812-0.845,1.355-1.98,1.32
			c2.869,0.651,4.024,3.016,7.26,3.3c-0.106,0.773-1.203,0.557-1.98,0.66c7.121,3.659,7.421,14.139,15.84,16.5
			c4.54,8.347,12.578,12.243,14.52,24.42c-3.029-1.59-6.114-3.125-9.899-3.96c3.049,2.451,7.491,3.509,10.56,5.94
			c-2.663,1.539-5.223-2.68-7.92-3.3c1.034,2.495,7.293,5.459,9.9,8.58c-1.914,1.224-4.14-2.878-5.94-3.96
			c2.243,2.924,5.896,7.964,6.601,11.88c-2.14,1.252,0.483,3.847-1.98,5.28c0.163,0.83,1.313,0.666,1.32,0
			c2.176,1.795-2.716,2.081-2.641,3.96c3.198-0.907,3.971-3.098,5.94-3.3c-0.462-2.032-0.462-1.269,0-3.3
			c1.739,1.111,1.396-1.58,3.3,0.66c-1.545-2.186,0.924-5.267,2.641-3.96c0-0.88,0-1.76,0-2.64c1.122-0.243,1.244,0.515,1.319,1.32
			c1.114-1.584,0.819-3.782,1.979-0.66c1.432,0.111,0.3-2.341,0.66-3.3c2.401-0.804,2.594,3.224,2.641-0.66
			c1.021-2.018,0.581,2.862,0.66,3.96c1.043-1.157,0.883-3.517,1.32-5.28c1.457,0.083,0.279,2.8,0.659,3.96
			c0.981-0.999,1.063-2.896,1.32-4.62c2.021,1.432-0.633,3.715,0,5.94c1.837-1.243,1.273-4.886,2.64-6.6
			c1.701,0.159-0.906,1.136,0,2.64c0.617-0.484,1-1.2,1.32-1.98c1.438-1.572-0.33,1.349,0,2.64c1.16-0.6,1.207-2.313,1.98-3.3
			c0.748,1.218,0.254,3.218,1.319,0c1.935,0.559-0.395,2.125,0,3.3c1.272-0.268,0.521-2.559,2.64-1.98
			c-0.232,0.867-1.162,1.038-1.319,1.98c0.573,1.95,0.987-1.531,2.64-0.66c-2.514,2.325-3.472,6.208-7.26,7.26
			c0.204,0.896,1.652,0.547,2.641,0.66c-3.42,2.852,4.021,4.238,6.6,5.28c-0.195,1.774-1.184,3.252-1.32,6.6
			c-0.813-0.737-1.355-0.575-1.32,0.66c-1.203-7.896-7.313-9.4-12.539-5.28c1.865,0.691,2.668,2.062-0.66,1.98
			c0.287,0.812,0.844,1.355,1.979,1.32c-3.357,1.858-2.687,3.813-7.26,4.62c0.435,1.977,1.411-0.631,2.64,0
			c-0.602,1.599-2.652,1.748-4.619,1.979c-0.111,1.432,2.34,0.299,3.299,0.66c-0.105,0.773-1.203,0.557-1.979,0.66
			c3.198,6.908,13.565,2.649,18.479,7.92c0.94-1.92,3.535-2.185,5.28-3.3c0,0.66,0,1.32,0,1.98c0.765-0.962,3.108-1.643,1.32,0
			c0.009,1.551,1.801-0.241,1.319-1.32c0.842,0.149,0.865,1.97,0,1.98c0.447,0.866,2.193-0.729,2.641-0.66
			c1.792,0.6-0.673,2.313-0.66,3.3c1.131-0.849,2.596-1.365,2.641-3.3c1.789,0.994-1.051,2.847-1.32,3.96
			c0.991-0.988,2.779-1.181,3.3-2.64c2.023,0.648-0.759,1.761-0.66,2.64c0.987-0.773,2.7-0.821,3.3-1.98
			c5.341,2.485,8.734,4.903,13.86,8.58c-4.915-2.517-20.767-5.15-27.72,0c0.559,0.98,2.125,0.955,3.3,1.32
			c0.308,1.408-0.942,1.257-1.979,1.32c2.63-0.629,3.987,6.688,2.64,4.62c2.405,3.689,1.118,8.16,3.3,14.52
			c1.706,4.972,6.02,15.193,4.62,23.1c-2.083-2.318-1.396-7.404-3.3-9.9c-1.356,0.184-1.317,1.763-1.98,2.64
			c-0.119,1.44,0.541,2.1,1.98,1.98c-0.435,1.977-1.411-0.631-2.641,0c1.446,2.954,3.999,4.801,5.28,7.92
			c-2.321-0.76-2.417-3.743-4.62-4.62c-0.779,1.903,4.204,3.698,3.96,7.26c-2.519-0.783-2.102-4.498-4.62-5.28
			c1.668,2.731,3.25,5.55,3.961,9.239c-0.643-0.018-0.513-0.809-0.66-1.32c0.536,6.023-4.14,10.805-5.94,16.5
			c-1.687-1.744-1.31,0.904-1.32,2.641c-1.726-6.199-4.569-16.988-7.92-23.76c-0.642,0.018-0.513,0.807-0.659,1.32
			c-2.855-5.254-6.531-9.064-9.24-13.2c-2.861,0.578-6.197-5.381-9.24-4.62c-2.61,5.688,1.998,9.79,1.98,13.859
			c-0.436,1.977-1.412-0.631-2.641,0c1.288,1.572,3.922,1.797,3.3,5.279c-1.38,0.281-1.747-0.451-2.64-0.658
			c1.189,2.191,3.229,2.066,1.98,5.279c-1.801,0.48-1.329-1.313-2.641-1.32c2.164,6.848,7.267,23.863,2.641,33
			c-1.703-0.906-0.146-4.043,0-5.279c-0.672,0.428-0.684,1.518-1.98,1.32c-0.402-4.092-1.898-3.061,0-8.58
			c-1.055,0.924-1.687,2.273-1.98,3.959c-2.005-0.813,0.716-2.27,0-3.959c-4.992,6.666-5.084,18.234-8.58,26.398
			c-1.438,1.572,0.33-1.348,0-2.639c-1.735-0.195-0.52,2.561-2.64,1.979c0.604-2.256,0.991-4.727,1.979-6.6
			c-0.232-0.924-1.162-0.057-1.319,0.66c-1.761-1.379,1.644-3.15,1.319-5.279c-0.349-0.531-0.688-1.072-0.66-1.98
			c-0.717,0.164-0.447,1.313-1.319,1.32c-1.474,1.354,1.44-2.465,1.319-3.961c-0.67,0.43-0.682,1.518-1.979,1.32
			c-0.897-9.354-0.649-23.221-6.6-31.68c-0.087-1.627-0.1-3.18,0.66-3.959c-0.408-0.775-2.876,0.813-1.98-2.641
			c-7.591,63.895-29.002,117.809-55.44,163.02c-6.669,11.406-14.483,22.787-17.16,39.6c-6.6,0-13.2,0-19.8,0
			c3.307-5.195,6.827-10.086,9.24-17.16c11.202-32.84,22.328-67.486,26.4-109.559c2.44-25.223,2.725-50.385,0-77.881
			c-0.768,0.107-1.174-0.145-1.32-0.659c-0.966,0.573-2.092,0.987-1.98,2.64c-0.063-4.558-5.616,5.939-7.92,5.279
			c-0.682-5.748,7.39-8.444,9.9-13.199c-0.063-1.255-2.576,0.409-2.64,1.32c0.609-3.231-3.264,0.787-0.66-2.64
			c-0.683-1.273-2.617,1.731-3.3,2.64c-1.01-0.841,1.463-3.779,2.64-4.62c-2.745-1.36,0.298-4.39,1.98-5.28
			c-2.876,0.793-1.323-0.928,0.66-3.3c-0.531,0.349-1.071,0.688-1.98,0.66c3.166-6.272-1.051-14.152-1.32-21.12
			c-5.064,2.856-8.822,7.019-11.22,12.54c0.161-6.589,2.585-12.637,8.58-15.18c-0.601-1.792-2.313,0.673-3.3,0.66
			c1.997-2.05,4.719-2.337,3.96-6.6c-1.783-10.012-8.155-32.349-11.88-40.92c-1.135,0.204,0.857,2.292-1.98,1.98
			c-0.029,1.129,0.491,1.709,1.32,1.98c-2.959-0.313,0.259,2.165-1.98,5.28c-1.066,0.186-1.136-0.624-1.98-0.66
			c0.31,3.729,0.867,5.305,2.64,8.58c-1.696-0.064-0.944-2.576-2.64-2.64c0.221,2.199,1.912,2.928,1.32,5.94
			c-0.535-0.125-0.658-0.662-1.32-0.66c1.271,3.679-2.573,14.118-3.96,13.86c0.915,0.405,0.099,2.541,1.32,2.64
			c-1.414,1.583-2.054-3.188-3.96-3.3c0.792,1.462,4.815,7.822,1.32,7.26c1.848,4.067,0.059,10.848-0.66,14.52
			c-0.743-1.361,0.042-0.577-1.32-1.32c-1.461,0.665,1.626,2.272,0.66,4.62c-1.74-0.46-1.396-3.005-3.3-3.3
			c0.983,1.657,1.645,3.636,3.3,4.62c-1.632,1.374-2.597-3.535-4.62-3.96c0.753,2.547,2.844,3.756,3.3,6.6
			c-1.977-1.323-2.781-3.819-3.96-5.94c-0.47,2.217,3.566,6.958,3.3,9.24c-0.204,1.396-2.292-0.693-1.98-1.98
			c0.479,4.031,0.464,3.263,1.32,7.26c-1.346-0.194-1.294-1.786-2.64-1.98c-0.172,1.932,1.492,2.028,1.32,3.96
			c-1.304-0.457-1.76-1.761-1.98-3.3c-1.917,1.536,1.24,3.556,0.66,5.94c-1.688-1.172-1.48-4.24-2.64-5.94
			c-0.934,0.978,0.257,5.43,1.32,6.6c-2.813-1.155-7.039-6.594-6.6-13.2c-1.221,0.099-0.405,2.235-1.32,2.64
			c-1.092,1.462,0.369-4.532,0.66-5.94c-0.586-1.583-2.01,1.435-1.98,2.64c-1.679-1.938,1.372-4.76,1.32-7.26
			c-1.303,1.558-2.286,3.434-3.3,5.28c-0.215-0.046-0.422-5.665,0.66-6.6c-0.78-0.31-2.817,0.146-1.98-3.3
			c-1.415,1.885,0.211,6.812-3.3,6.6c0-1.54,0-3.08,0-4.62c-1.914,0.946,0.042,5.762-2.64,5.94c0.913-2.607,0.955-6.085,1.32-9.24
			c-1.458,1.841-1.616,4.984-1.98,7.92c-1.635-1.044-0.27-4.617,0-5.94c-0.616,0.484-1,1.2-1.32,1.98
			c-1.977-0.434,0.631-1.411,0-2.64c-1.129-0.029-1.709,0.49-1.98,1.32c0.863-7.826-2.162-10.918,2.64-16.5
			c-1.785-1.526-2.124,4.008-4.62,3.96c1.153-4.093,2.484-8.006,5.94-11.22c-2.887,0.853-4.149,3.33-5.94,5.28
			c-1.208-2.115,3.013-4.446,3.96-6.6c-0.975-1.356-2.552,2.244-4.62,1.98c2.014-1.727,3.292-4.188,2.64-8.58
			c-1.417,3.678-1.702,7.197-3.96,8.58c-1.251-0.87,0.612-4.184,0.66-5.94c-2.236,1.064-1.197,5.403-3.3,6.6
			c-1.449-0.859,0.78-3.567,0.66-5.28c-1.999-0.182-0.407-2.415-1.98-4.62c-1.407,1.673-3.275,2.885-3.96,5.28
			c-1.937-0.561,0.858-1.661,0-3.3c-1.685,1.615-2.257,4.343-3.3,6.6c-0.953-1.572-1.001-1.62-1.98-1.98
			c-1.978,1.724-2.759,7.55-5.94,5.94c0.176,2.376-1.219,3.181-1.32,5.28c-1.431,0.111-0.299-2.341-0.66-3.3
			c-1.021,0.959-1.386,2.574-1.32,4.62c-2.173-3.404-2.669,3.09-3.3,5.28c-0.773-0.106-0.557-1.204-0.66-1.98
			c-1.156,1.264-1.399,3.441-1.98,5.28c-1.763-1.821-1.435,0.779-3.3,0.66c1.661-8.68,7.668-13.012,9.9-21.12
			c-1.242,1.887-2.086,4.126-1.32,0c-1.61,3.281-2.662,3.901-3.96,6.6c-1.858-0.667,0.182-2.803,0-3.96
			c-1.055,0.926-1.686,2.274-1.98,3.96c-2.055-1.259,1.032-2.866,0.66-4.62c-1.827,1.693-2.732,4.308-3.96,6.6
			c-1.483-1.742,0.417-5.714,1.32-7.26c-3.044,1.8-2.634-3.618,0-5.94c-0.593-1.785-1.593,1.392-1.98,1.979
			c-2.071-2.544,1.584-4.99,2.64-6.6c-0.683-1.273-2.617,1.73-3.3,2.64c-1.692-1.312,1.674-3.122,2.64-3.96
			c-1.097-1.687-1.772,2.576-3.96,1.98c1.867-2.313,3.701-4.659,6.6-5.94c-1.048-0.789-4.541,1.591-5.94,2.64
			c-0.212-2.427,5.235-4.874,7.92-6.6c-1.512-1.253-4.794,1.337-7.26,1.32c1.714-2.687,5.185-3.615,8.58-4.62
			c-1.611-1.78-4.303,0.939-7.26,0c1.192-1.007,2.021-2.378,4.62-1.98c-0.106-0.773-1.203-0.557-1.98-0.66
			c0.284-1.036,2.076-0.564,1.32-2.64c2.269,0.289,3.699-0.261,5.28-0.66c-0.284-1.476-3.252-0.268-4.62-0.66
			c1.177-1.463,2.884-2.396,5.94-1.98c0.21-1.75-3.697,0.617-2.64-1.98c2.86,0,5.72,0,8.58,0c-0.702-1.498-4.149-0.251-5.94-0.66
			c0.404-0.616,1.536-2.435-0.66-1.98c0.674-1.47,3.034,0.863,5.28,0c-2.32-1.145-2.036-1.429,1.32-1.32
			c-0.645-0.675-1.305-1.335-1.98-1.98c2.55,0.148,3.451-0.422,7.92,0c-0.1-1.221-2.235-0.405-2.64-1.32
			c0.5-0.589,2.107-0.565,4.62-0.66c-0.484-0.616-1.2-1-1.98-1.32c0.915-0.175,2.372-0.299,2.64-2.64
			c-0.745-0.795-1.884-1.196-1.32-3.3c-11.928-1.852-26.204,2.762-27.06,15.18c-0.247,3.585,0.673,6.611,1.98,10.56
			c-2.891,0.016-6.393-7.81-4.62-12.54c-0.886,0.434-1.229,1.411-1.32,2.64c-1.935-0.559,0.395-2.125,0-3.3
			c-0.812,0.737-1.355,0.575-1.32-0.66c-7.208,6.211-12.851,13.989-14.52,25.74c-0.773-0.106-0.557-1.203-0.66-1.98
			c-0.125-0.749-0.662-0.367-0.66,0c-1.857-0.747,1.565-5.921-0.66-5.94c0.945-1.695,1.099-4.181,2.64-5.28
			c-0.194-1.569-1.786,0.734-1.98,1.32c-0.616-3.707,2.692-6.822,6.6-10.56c-2.244,1.276-4.499,2.541-5.94,4.62
			c0.766-3.203,6.339-7.294,10.56-9.24c-2.678-0.924-10.51,4.475-7.92,1.98c2.17-2.091,5.314-3.62,10.56-5.28
			c-2.39-1.483-5.972,1.488-9.24,1.32c4.418-1.962,6.95-5.81,11.88-7.26c-0.78-1.777-3.441,0.002-4.62,0
			c1.429-1.871,4.813-1.786,7.26-2.64c0.111-1.431-2.341-0.299-3.3-0.66c0.075-2.029,8.797-3.3,3.96-3.96
			c0.082-1.458,2.8-0.28,3.96-0.66c-0.159-1.161-1.136-1.505-2.64-1.32c0.915-1.505,4.594-0.246,6.6-0.66
			c-1.567-1.072-3.998-1.282-5.94-1.98c3.139-1.361,7.913,1.313,11.88,1.32c-1.749-1.771-5.946-1.094-7.92-2.64
			c0.959-1.956,2.574,0.87,4.62,0c-0.156-1.824-3.724-0.236-3.3-2.64c2.613,0.608,7.279,0.977,10.56,2.64
			c-0.778-1.862-3.272-2.008-5.28-2.64c0.545-1.865-0.93-1.709-0.66-3.3c2.123,0.957,3.699,2.461,5.94,3.3
			c1.954-1.158-2.528-1.369-1.98-3.3c2.999,1.622,5.833,3.408,8.58,5.28c-0.761-2.979-5.229-2.25-4.62-6.6
			c1.332,1.309,2.651,2.628,3.96,3.96c1.949-0.574-1.531-0.988-0.66-2.64c1.493,0.707,2.902,1.498,3.96,2.64
			c1.569-0.194-0.734-1.786-1.32-1.98c0.073-1.616,2.182-0.14,1.98,0.66c0.882-0.658,1.296-1.784,2.64-1.98
			c-0.374-0.616-1.835-1-0.66-1.32c0.111-1.431-2.341-0.299-3.3-0.66c0.099-1.221,2.235-0.405,2.64-1.32
			c-2.452-1.545-7.896-0.436-10.56,0c0.922-1.96,4.417-1.739,5.94-1.32c-14.428-4.247-28.4,5.415-31.68,18.48
			c-1.251-10.714,8.404-16.234,16.5-19.8c-0.106-0.773-1.203-0.557-1.98-0.66c1.156-1.043,3.517-0.883,5.28-1.32
			c-0.429-0.671-1.518-0.683-1.32-1.98c0.768-0.107,1.174,0.146,1.32,0.66c2.452-3.12,0.63-5.074,1.32-7.26
			c2.635-8.345,20.417-15.006,19.8-17.16c-0.3-1.049,0.182-5.512,1.32-7.26c8.585,0.629,15.309,1.198,17.82-5.28
			c1.338,2.723,2.89-0.048,3.96-1.32c1.323-1.608-0.937,2.449-1.32,3.3c0.661,2.036,1.088-1.432,1.98-1.32
			c1.288-1.412-1.406,3.003-1.32,4.62c1.231-2.729,4.268-3.651,5.28-6.6c0.015,4.423-4.225,10.29-4.62,16.5
			c2.627-5.073,3.925-11.475,9.24-13.86c-2.002,2.178-3.219,5.142-4.62,7.92c2.409-1.771,3.222-5.138,6.6-5.94
			c-0.632,1.348-1.348,2.612-1.98,3.96C13.388,29.248,13.98,28.96,14.12,28.22z M114.439,95.54
			c-2.555-4.265-5.441-8.198-9.899-10.56c0,1.54,0,3.08,0,4.62c0.405,0.915,2.541,0.099,2.64,1.32
			c-0.988,0.113-2.436-0.235-2.64,0.66C107.86,92.452,111.227,96.758,114.439,95.54z M-25.48,43.4
			c2.769-0.349,3.687,1.153,5.94,1.32c-0.865-2.435-3.463-3.137-5.94-3.96C-25.48,41.64-25.48,42.52-25.48,43.4z M-28.12,45.38
			c0.552,1.991,5.058,1.512,7.26,0.66C-23.502,46.137-25.634,43.376-28.12,45.38z M-32.08,49.34c0.076-1.201,7.914,0.139,7.26-1.32
			C-27.539,47.862-33.02,46.914-32.08,49.34z M-34.72,57.26c-0.373-2.39,1.958-5.471,0-7.26
			C-34.747,51.991-36.495,55.654-34.72,57.26z M-17.56,53.3c-0.26-1.136,0.98-1.692,0-1.98c1.225,1.701-5.153,2.932-1.32,0.66
			c-2.288,1.356-6.341,2.483-3.3,5.94c1.238-0.158-0.375-1.086,0.66-1.32c1.48,0.72,1.16,3.24,2.64,3.96
			c0.38-1.16-0.798-3.877,0.66-3.96c0.73,1.2,1.164,4.126,3.3,1.98c-0.286,3.125,1.395,2.631,2.64,1.32
			c-0.099,1.639,0.341,2.739,1.32,3.3c-0.602-3.022,2.956-1.885,3.96-3.3c0,1.1,0,2.2,0,3.3c1.15,0.049,2.053-0.147,2.64-0.66
			c-0.853,2.612,2.172,1.348,1.32,3.96c2.119,0.579,1.369-1.711,2.64-1.98c-0.186,1.726,0.241,2.839,1.98,2.64
			c-1.671-4.211,5.392-1.614,3.3-2.64c-1.719-1.141-4.451-1.27-5.28-3.3c3.613-0.603-1.452-0.227-1.32-1.32
			c1.367-0.393,4.335,0.815,4.62-0.66c-1.897-0.743-5.146-0.134-6.6-1.32c1.16-0.379,3.877,0.798,3.96-0.66
			c-0.488-0.656-8.609-3.012-7.92-4.62c0.437-1.02,6.761,1.526,2.64-0.66c-5.356-2.84-8.803,1.817-9.9-1.32
			C-16.05,51.29-16.25,52.851-17.56,53.3z M-24.82,59.24c-0.292-1.248,0.897-3.978-1.32-3.3
			C-27.192,56.932-26.122,58.719-24.82,59.24z M4.22,69.14c2.918-1.114,4.626,2.354,5.94,0.66c-1.658-0.783-7.447-3.661-7.26-1.98
			C3.706,67.895,4.463,68.018,4.22,69.14z M70.22,71.12c1.683-0.958,4.425-0.854,5.94-1.98c-0.158,0.942-1.087,1.113-1.32,1.98
			c2.072,0.312,1.744-1.776,3.3-1.98c0.075,0.805,0.197,1.563,1.32,1.32C78.644,65.836,68.864,68.428,70.22,71.12z M85.4,79.7
			c-1.765-0.875-3.278-2.002-5.28-2.64c0.481,1.801-1.312,1.329-1.32,2.64c2.042-0.483,5.37-0.932,3.96,1.32
			c2.396,0.024,5.21-0.37,5.94,1.32c-0.01,1.09-1.831,0.369-1.98,1.32c5.392,0.214,8.62-0.384,11.88,2.64
			c-0.777,0.103-1.874-0.114-1.98,0.66c0.867,0.673,2.433,0.647,3.3,1.32c0.07-1.69,0.374-3.146,1.32-3.96
			c0.422,2.436-2.058,4.544,1.32,4.62c0.766-3.882-2.401-8.5-3.96-5.94c-0.112-0.987,0.236-2.436-0.66-2.64
			c-0.139,0.74-0.732,1.027-1.32,1.32c1.313-3.79-2.79-2.503-1.32-0.66c-1.883-1.417-3.455-3.145-5.94-3.96
			c-0.759,1.936,3.166,2.451,1.32,3.3c-0.856-0.675-4.559-4.081-3.3-2.64C90.065,81.553,86.691,76.726,85.4,79.7z M19.4,94.22
			c-2.617-3.763-3.057-9.703-7.92-11.22C10.668,87.377,17.635,92.488,19.4,94.22z M20.06,90.92c-1.285-1.795-0.045-6.114-3.3-5.94
			C17.402,87.003,19.048,91.459,20.06,90.92z M12.8,90.26c-0.87-1.579-2.882-5.44-4.62-3.96C8.732,88.608,11.107,89.093,12.8,90.26z
			 M62.96,104.12c0.893-0.208,1.261-0.939,2.64-0.66c-0.683,3.025,3.589,3.077,0.66,4.62c4.112-0.498,2.131,1.664,3.96,2.64
			c-1.16,0.379-3.878-0.798-3.96,0.66c3.562,0.178,6.008,1.472,7.26,3.96c-0.077,1.099-5.396,0.22-3.3,1.32
			c3.86-0.78,3.483,2.677,5.28,3.96c3.029-8.083,19.888-4.727,19.8-13.86c-0.403-0.038-0.782-0.099-0.66-0.66
			c-3.518-0.699-0.165,1.39-1.98,1.98c-1.262-1.283-2.802-4.636-4.62-3.3c-0.22-1.54-0.676-2.844-1.98-3.3
			c-0.103,0.777,0.114,1.874-0.66,1.98c-2.567-1.436-6.711-7.255-9.9-3.96c0.309-2.069-1.659-1.86-2.64-2.64
			c-0.104,0.776,0.113,1.873-0.66,1.98c0.028-2.35-2.475-3.434-3.3-1.32c-2.428-4.569-8.218,0.6-9.9-1.98
			c-0.688,3.083,3.475,3.892,0.66,5.28C62.54,101.847,63.12,103.019,62.96,104.12z M-2.38,98.84c-1.985-0.666-1.169,1.47-1.32,2.64
			c3.233-0.286,4.359-2.681,6.6-3.96c-2.383-1.33-3.195,0.066-5.28,0.66c0.002-0.367-0.535-0.749-0.66,0
			C-2.637,98.218-2.258,98.279-2.38,98.84z M107.18,103.46c-2.046-0.065-3.661,0.299-4.62,1.32c1.98,0,3.96,0,5.94,0
			c-0.45-2.41-2.501-3.218-3.3-5.28c-2.965-0.105-5.185,0.535-6.6,1.98C105.382,99.771,103.323,102.272,107.18,103.46z
			 M-24.82,110.72c-2.648,1.014,3.334-2.271,1.32-2.64c-0.523,0.652-3.102,2.515-3.3,1.32c1.289-0.77,6.074-4.074,4.62-3.3
			c-1.687-0.51-3.035,2.583-3.96,0.66c0.805-0.075,1.563-0.197,1.32-1.32c-1.322-0.912-4.905,1.054-3.3,3.3
			c-1.981-1.787-2.747,1.643-4.62,1.98c-0.148,1.248,0.744,1.456,0.66,2.64c-2.265-1.148-0.559,2.417-3.3,0
			c-0.716,1.69,2.005,3.146,0,3.96c-0.32-0.78-0.704-1.497-1.32-1.98c-0.393,1.367,0.815,4.335-0.66,4.62
			c0.087-0.868,0.1-4.775-0.66-2.64c-0.729,1.95-0.229,4.658-0.66,5.28c-0.873-0.008-0.604-1.157-1.32-1.32
			c-0.731,1.248-0.842,3.118-1.32,4.62c2.752-0.707,0.25-3.688,3.3-1.32C-34.759,119.257-26.274,115.651-24.82,110.72z
			 M109.82,106.1c-2.006,0.414-5.685-0.845-6.6,0.66C106.386,106.157,109.009,109.872,109.82,106.1z M35.9,112.7
			c-0.06-2.466-0.74-1.881,0-3.96c-0.909,0.028-1.449-0.311-1.98-0.66C34.152,110.048,34.301,112.099,35.9,112.7z M86.72,116
			c0.405,1.399,2.929,4.052,3.96,2.64C88.887,118.222,88.78,114.134,86.72,116z M88.7,120.62c-0.776-1.264-3.676-4.19-4.62-1.32
			C86.547,118.425,87.86,122.05,88.7,120.62z M85.4,120.62c-1.754,0.372-3.361-2.715-4.62-0.66
			C81.984,120.139,84.48,122.336,85.4,120.62z M45.8,146.36c3.538-0.548,3.265-0.804,5.94-1.98c-0.512-0.147-1.302-0.018-1.32-0.66
			c1.161-0.38,3.878,0.797,3.96-0.66c-1.136,0.036-1.692-0.508-1.98-1.32c2.369,0.546,3.193-1.488,4.62,0
			c0.044-2.684-2.092-3.188-1.98-5.94c-2.857-0.218-1.625,3.655-4.62,3.3c0.929-1.271,1.745-2.656,1.98-4.62
			c-2.038-5.095-8.491-4.905-9.9-11.88c-0.112,0.988,0.236,2.436-0.66,2.64c-0.792-1.226-2.675-4.754-3.96-3.3
			C41.032,129.568,43.274,138.106,45.8,146.36z M83.42,129.2c3.273-3.049,1.108,4.421,2.64,2.64
			c-0.035-1.135,0.508-1.691,1.32-1.979c0.151,4.572,2.58,3.36,3.3,6.6c-0.472-1.07,3.112-1.07,2.64,0
			c-0.737,3.128,3.253,4.035,2.64,6.6c1.97,0.147,2.244-2.437,3.96-0.66c-0.263-1.937-2.166-2.234-2.64-3.96
			c3.173-0.278-0.786-0.239,0-1.98c0.877-0.096,2.456,2.22,2.64,0.66c-0.991-0.988-2.779-1.181-3.3-2.64
			c1.229-0.631,2.206,1.977,2.64,0c-2.09-0.99-2.89-3.27-3.96-5.28c0.78,0.095,1.496,1.175,1.98,0
			C90.959,126.714,88.873,123.455,83.42,129.2z M-45.28,133.82c0.692-2.175,4.28-4.629,1.32-6.6
			C-42.031,129.677-47.193,131.657-45.28,133.82z M-36.7,135.14c0.992-1.066,2.6-7.548,1.32-6.6
			C-35.56,130.593-37.732,134.063-36.7,135.14z M67.58,153.62c0.481,1.079-1.312,2.871-1.32,1.32c-0.182-1.157,1.858-3.293,0-3.96
			c0.328,4.387-1.969-1.05-2.64-1.32c-8.154-3.278-16.495,7.879-12.54,16.5c2.004-0.877,3.227-2.93,5.94-1.32
			c0.489-2.248-2.432-1.087-2.64-2.64c2.927,0.319,4.002-0.188,3.96-1.32c1.246-0.012,5.372,2.18,3.96,0.66
			c-1.363-0.397-2.5-1.021-1.98-3.3c1.242,0.35,3.055,3.475,3.96,1.98c-0.717-0.158-1.585-1.087-0.66-1.32
			c3.469,2.259-0.102,0.21,1.32-1.32c0.867,0.673,2.433,0.647,3.3,1.32c0.065-1.309,2.321-5.786,0.66-4.62
			c-0.365,1.175-0.339,2.741-1.32,3.3C66.864,155.89,69.585,154.434,67.58,153.62z M99.92,169.46
			c-0.611-3.569,1.58-9.939-1.98-10.56C97.054,161.916,99.133,166.088,99.92,169.46z M147.439,165.5
			c-0.765-1.797-4.671-4.229-5.279-0.66C145.14,162.982,145.986,166.601,147.439,165.5z M66.92,166.82
			c-3.55,1.29-6.684,2.995-8.58,5.94c-0.148-0.512-0.019-1.302-0.66-1.32c-0.42,3.83-3.487,0.906-4.62,5.94
			c4.577,0.085,10.694-3.758,13.86-7.26c-0.776-0.104-1.873,0.113-1.98-0.66c1.639,0.099,2.739-0.341,3.3-1.32
			C65.795,168.48,66.58,169.265,66.92,166.82z M82.76,170.12c2.158-0.262,4.267-0.573,4.62-2.64
			C84.701,167.221,82.782,167.722,82.76,170.12z M156.02,178.04c-2.878-0.549-4.245-5.478-4.619-1.32
			c-1.861-0.697-0.823-2.616-3.301-1.32c-0.666-1.314-1.141-2.819-2.64-3.3c-0.157,0.942-1.087,1.113-1.319,1.98
			c3.16-0.3,2.744,2.976,5.279,3.3c0.197,1.298-0.891,1.309-1.32,1.98c3.526,0.655,6.086,2.274,7.261,5.28
			c-0.78-0.095-1.497-1.175-1.98,0c0.942,0.158,1.113,1.087,1.98,1.32c-0.466-2.058,3.69-2.839,1.319-4.62
			c-1.625,2.171,1.352-1.958-0.66-1.98c-0.157,0.717-1.086,1.585-1.319,0.66C154.76,178.98,156.383,179.503,156.02,178.04z
			 M156.02,187.28c1.677,0.293,2.628-3.449,1.32-3.96C156.96,184.7,155.704,185.204,156.02,187.28z M62.96,229.52
			c0.114-1.904,3.513-3.916,1.98-5.279c-0.194,0.586-1.786,2.889-1.98,1.318c0.395-0.986,3.321-2.754,1.98-3.299
			c-0.172,0.928-1.447,0.752-1.98,1.32c0.887-1.314,1.258-3.143,1.98-4.621c-2.465-0.705-1.881,1.639-3.96,1.32
			c0.134-0.84,1.918-3.232,0.66-3.299c-3.714,3.988-2.28,8.086-1.98,13.859c2.194,42.295-8.019,85.666-13.86,120.119
			c27.033-46.447,49.231-101.248,54.78-166.979c-6.496,7.804-9.247,19.354-16.5,26.399c-0.148-0.512-0.018-1.301-0.66-1.318
			c-1.125,7.674-4.763,12.836-8.58,17.818c0.12-2.529-0.541-0.238-1.98-0.66c-0.684,4.721-3.398,12.125-5.94,9.24
			c-0.361,0.959,0.771,3.412-0.66,3.301c-0.38-1.16,0.797-3.877-0.66-3.961c0.065,2.047-0.299,3.662-1.32,4.621
			C62.946,237.621,64.874,228.395,62.96,229.52z M57.68,213.02c2.763-1.957,5.1-11.045,5.94-10.561
			c-1.312,0.01-0.839,1.801-2.64,1.32c0.939-3.473,6.553-5.752,6.6-7.92c-1.376,1.045-2.688,2.152-4.62,2.641
			c0.58-2.061,3.113-2.168,3.96-3.96c-1.229-0.631-2.206,1.976-2.64,0c1.77-0.034,3.842-3.139,2.64-3.96
			c-0.659,1.981-1.979,3.301-3.96,3.96c-0.187-1.206,2.115-4.224,0.66-2.64c-0.915,0.262-1.87,3.747-2.64,1.98
			c1.053-1.807,1.732-3.987,1.98-6.6c-3.439,0.228-3.72,3.115-3.96,0C52.082,192.046,58.052,203.443,57.68,213.02z M154.7,198.5
			c-1.126,0.27,0.139,0.852,0,1.98c-0.405-0.193-2.541-1.643-2.64,0c1.932-0.174,2.027,1.492,3.959,1.318
			c-0.351-1.848-0.969-3.43-1.319-5.279c-1.897,0.922-3.353-1.799-3.96,0C151.586,197.654,154.687,196.533,154.7,198.5z
			 M156.02,205.1c0.492-2.725-4.08-3.797-4.619-3.301C152.973,202.867,154.31,204.17,156.02,205.1z M156.68,208.4
			c0-0.881,0-1.762,0-2.641c-2.467,0.875-3.779-2.75-4.619-1.32C154.263,205.098,154.346,207.875,156.68,208.4z"/>
	</g>
</g>
<path fill="none" stroke="#000000" d="M248.988,196.125"/>
<path fill="none" stroke="#000000" stroke-width="0.8586" d="M121.606,392.599"/>
<g>
	<path fill="#2A2C2A" stroke="#97D300" stroke-width="0.2146" d="M198.426,223.069c8.338,123.316-114.702,216.544-89.725,245.835"/>
	<path fill="#2A2C2A" stroke="#97D300" stroke-width="0.2146" d="M128.145,487.789c16.383-167.274-93.664-259.917-1.009-216.514"/>
	<path fill="#2A2C2A" stroke="#97D300" stroke-width="0.2146" d="M99.432,211.384c25.269,41.376,7.223,259.222,34.806,291.571"/>
	<path fill="#2A2C2A" stroke="#97D300" stroke-width="0.2146" d="M176.873,189.965c32.777,56.709-82.63,248.937-69.143,275.19"/>
</g>
<path fill="#2A2C2A" stroke="#97D300" stroke-width="0.2146" d="M142.117,172.696c23.846,72.336-76.339,338.53-28.252,300.957"/>
<path fill-rule="evenodd" clip-rule="evenodd" fill="#2A2A2A" stroke="#97D300" stroke-width="0.25" d="M60.536,346.165
	c1.984,1.891,0.485,4.724,0,7c-1.333,0-2.667,0-4,0C54.24,350.368,55.985,345.21,60.536,346.165z"/>
<path fill-rule="evenodd" clip-rule="evenodd" fill="#2A2A2A" stroke="#97D300" stroke-width="0.25" d="M67.536,369.165
	c1.774-2.668,0.729,5.859,1,8C66.762,379.833,67.808,371.306,67.536,369.165z"/>
<path fill-rule="evenodd" clip-rule="evenodd" fill="#2B2B2B" d="M43.468,316.92c-1.057-1.333,1.66-4.42,2.101-6.448
	c-3.436,3.372-5.981,9.522-9.047,14.05c-3.267-15.632-10.018-29.648-22.539-40.986c-2.072,0.584-3.384,3.578-2.407,5.496
	c2.217,1.495,3.657,0.563,5.149-0.201c5.775,5.529,12.671,10.539,11.872,19.119c6.287,2.421,4.674,13.12,6.722,19.319
	c-3.583,6.162-7.109,12.506-10.24,20.076c-2.125,0.594-2.357-4.358-6.678-4.563c4.522-7.372-0.267-8.037,3.29-14.115
	c-1.05-0.563-1.648,0.281-2.728-0.375c4.75-9.502,2.171-15.603-2.485-20.739c6.031,13.606-11.508,34.951-17.719,52.006
	c-5.967,16.383-2.163,33.108,1.654,47.395c3.882,14.522,8.827,29.021,14.663,40.809c2.051-9.708,2.231-18.549,5.368-28.761
	c1.953-0.657,4.172,3.029,6.668,1.285c2.871-3.271,2.415-6.986,1.485-9.994c4.416-0.365,10.027-3.687,10.571-10.926
	c18.47,8.002,31.631-31.132,8.392-30.711c0.733-3.167,6.764-3.803,9.066-7.491c1.16-3.343-2.756,1.026-4.548-1.174
	c3.051-3.485,6.274-6.442,9.667-8.864c0.629-1.835-1.457,0.485-2.426-1.063c8.656-8.084,9.96-21.948,9.906-30.867
	C62.622,347.929,36.398,352.462,28.5,377.5c-0.318-17.346,15.089-28.577,19.855-46.978c-3.814,3.298-4.413,10.744-9.348,14.736
	c5.765-12.572,5.378-22.014,12.323-33.083c4.608-7.345,17.718-12.353,24.204-10.685c7.825,2.014,16.236,11.372,10.352,17.635
	c4.193,12.277,15.588-6.838,3.621-4.964c-4.401-16.38-26.973-16.185-36.065-5.154c4.201-16.806,9.863-42.967-11.629-39.48
	c-1.621,1.448-2.769,4.369-4.223,6.337c2.228-0.1,5.049,1.649,7.276,1.549c3.09-3.991,1.344-9.141,7.557-5.696
	C61.409,276.703,56.11,312.122,43.468,316.92z"/>
<path fill-rule="evenodd" clip-rule="evenodd" fill="#2A2A2A" stroke="#97D300" stroke-width="0.25" d="M62.536,353.165
	c2.901,2.432,3.139,7.527,5,11c0.826,2.37-1.409,4.605-1,1C66.043,360.325,63.132,357.901,62.536,353.165z"/>
<path fill-rule="evenodd" clip-rule="evenodd" fill="#2A2A2A" d="M60.536,401.165c-6.689-0.534-11.664,8.887-16,14
	c3.222-10.45,19.574-16.423,21-32c1.656,0.199,1.086-7.475,2-2c-1.708,6.291-3.577,12.422-8,16
	C59.409,398.958,60.76,399.274,60.536,401.165z"/>
<g>
	<path fill-rule="evenodd" clip-rule="evenodd" fill="#2B2B2B" d="M186.082,393.892c-0.205,0.121-0.281,0.354-0.699,0.289
		C184.715,393.325,186.185,392.53,186.082,393.892z"/>
	<path fill-rule="evenodd" clip-rule="evenodd" fill="#2B2B2B" d="M143.736,369.765c0.875-0.062,1.75-0.123,2.625-0.185
		c0.003,0.04,0.006,0.08,0.009,0.119c17.994,1.771,35.812,3.747,52.866,6.601c0.105-0.473-1.445-1.363-0.859-1.979
		c1.223-0.395,2.026,0.783,3.084,1.223c0.495,0.206,1.164,0.117,1.704,0.36c0.839,0.378,1.271,1.232,2.146,1.528
		c1.685,0.568,4.376,0.874,6.194,1.123c5.873,0.806,12.049,2.877,18.115,3.525c0.008,0.119,0.017,0.238,0.025,0.357
		c-1.132,0.661-2.936,0.736-4.229,1.256c0.159,0.636,1.433-0.014,1.49,0.735c-3.286,2.433-7.624,1.929-11.882,1.554
		c-1.765-0.155-3.64-0.046-4.951-0.492c-1.197-0.407-2.552-1.81-4.763-1.224c-1.258,0.333-2.399,1.724-3.438,2.279
		c-1.347,0.724-2.586,1.009-3.947,1.837c-0.193,0.84-0.34,1.722-0.54,2.556c0.901,0.909,1.769,2.358,1.384,4.34
		c-0.457,0.574-0.804,1.243-1.57,1.549c-0.397,0.028-0.795,0.056-1.193,0.084c-1.42-0.084-1.793-1.374-2.221-2.602
		c-1.631-0.016-3.12-0.191-4.807-0.143c-0.353,1.001-0.51,2.172-1.494,2.623c-2.996,1.3-4.568-2.029-3.422-4.317
		c-0.63-0.263-0.51-1.389-1.302-1.467c-6.805,0.039-14.594-0.192-21.724-0.272c-1.046-0.013-2.357-0.234-3.119-0.021
		c-0.8,0.224-1.064,1.402-2.064,1.345c-0.484-0.455,1.109-1.059,0.258-1.457c-1.494,0.183-2.775-1.359-4.191-1.625
		c-1.282-0.241-2.753,0.001-4.082-0.073c-1.229-0.068-2.571-0.071-3.75-0.457c1.795-1.744,5.41-1.646,8.236-2.256
		c-0.112-3.178,5.344-5.972,4.781-0.216c2.928-0.02,5.5-1.322,8.125-2.13c2.666-0.82,5.361-1.499,7.979-2.479
		c-5.226-1.333-10.786-2.712-16.35-4.008c-1.796-0.419-3.733-1.104-5.479-1.175c-1.245-0.05-2.556,0.46-3.81,0.388
		c-1.113-0.065-2.475-0.718-3.792-1.053c-1.292-0.329-2.63-0.635-3.782-0.934c-2.781-0.722-5.537-1.373-7.813-1.971
		c-0.005-0.078-0.011-0.158-0.017-0.238c2.281-1.701,5.891-2.226,9.129-1.479C141.994,370.417,142.814,370.047,143.736,369.765z
		 M151.968,370.865c12.759,1.891,25.735,4.174,38.54,5.808c0.65-0.203,1.223-0.948,2.098-0.866c1.184,0.109,0.895,1.333,1.805,1.792
		c1.113-0.017,2.758-0.51,3.768-0.984c-16.619-3.054-34.441-4.722-52.029-6.66C147.76,370.516,150.025,370.578,151.968,370.865z
		 M189.815,378.76c-2.141,3.369-4.093,6.902-6.233,10.271c6.72-0.55,12.188-3.153,17.111-5.638
		c-0.132-2.127-0.331-4.176-0.666-6.069C196.738,377.848,192.957,380.173,189.815,378.76z M205.114,378.045
		c0.017,0.239,0.033,0.478,0.05,0.716c6.443,1.355,13.858,2.277,20.477,3C218.802,380.604,211.935,378.794,205.114,378.045z
		 M152.802,386.156c0.971,0.223,2.929,0.217,3.818-0.269c-0.106-1.039,0.001-2.323-0.56-2.839
		C154.09,382.884,152.95,384.368,152.802,386.156z M163.508,384.925c-1.186,0.377-2.832,0.657-3.402,1.077
		c-1.197,0.884-1.159,2.935-1.752,4.08c4.105-0.081,8.071-0.004,12.222-0.139c1.038-1.901,1.931-4.341,2.794-6.312
		c0.26-0.59,1.015-1.321,0.582-1.959C171.331,382.661,166.738,383.895,163.508,384.925z M153.097,388.653
		c0.109,0.691,0.689,0.841,1.269,0.989c0.41-0.547,1.504-0.945,1.195-1.763C154.607,388.023,153.779,388.274,153.097,388.653z
		 M195.691,389.021c0.16,0.935,0.121,2.096,1.328,1.824c0.051-0.852,0.422-1.425,0.438-2.309
		C196.658,388.514,196.235,388.819,195.691,389.021z M192.648,390.073c0.537,0.714,0.667,1.897,1.48,2.294
		c0.103-1.031,0.465-1.836,0.387-3.024C193.748,389.46,192.871,389.482,192.648,390.073z M194.803,391.72
		c0.229-0.285,0.669-0.39,0.912-0.663c-0.183-0.648-0.123-1.577-0.723-1.747C195.04,390.136,194.449,391,194.803,391.72z
		 M189.076,390.444c-0.461,0.741-0.649,2.041-0.148,3.008c1.592-0.018,3.482,0.281,4.918,0.014
		c-0.373-1.374-1.178-2.255-1.684-3.479C191.066,390.081,190.025,390.222,189.076,390.444z M183.596,390.948
		c-0.043,0.566,0.437,0.53,0.545,0.921c0.547-0.197,1.012-0.465,1.127-1.038C184.654,390.648,184.289,390.918,183.596,390.948z
		 M186.34,390.756c-0.145-0.091-0.33-0.136-0.604-0.077C185.716,391.051,186.344,391.123,186.34,390.756z M186.707,390.851
		c0.549,0.142,0.951,0.452,1.482,0.614c0.132-0.296,0.404-0.47,0.291-0.979C187.914,390.63,186.873,390.359,186.707,390.851z
		 M185.73,395.715c2.338,0.073,1.54-4.726-0.499-3.682C184.146,392.588,184.228,395.669,185.73,395.715z"/>
</g>
</svg>
