<?xml version="1.0" encoding="utf-8"?>
<!-- Generator: Adobe Illustrator 13.0.0, SVG Export Plug-In . SVG Version: 6.00 Build 14948)  -->
<!DOCTYPE svg PUBLIC "-//W3C//DTD SVG 1.1//EN" "http://www.w3.org/Graphics/SVG/1.1/DTD/svg11.dtd">
<svg version="1.1" id="Layer_1" xmlns="http://www.w3.org/2000/svg" xmlns:xlink="http://www.w3.org/1999/xlink" x="0px" y="0px"
	 width="130px" height="70px" viewBox="0 0 130 70" enable-background="new 0 0 130 70" xml:space="preserve">
<g>
	<path fill-rule="evenodd" clip-rule="evenodd" fill="#97D300" d="M56.569,33.452c0.395-0.378-0.503-0.105-0.322-0.618
		c0.601,0,0.177,0.031,0.801,0.273c-0.12,0.688,0.107,0.522-0.165,1.204c0.112,0.279,0.727,0.075,1.038,0.162
		c0.057-0.636-0.339-0.834-0.169-1.58c0.248,0.42,0.294,1.034,0.28,1.705c0.672-0.209,1.709-0.003,2.554-0.017
		c-0.201-0.426-0.437-0.819-0.284-1.585c0.642-0.114,0.979,0.89,0.521,1.473c0.076,0.276,0.648,0.073,0.921,0.158
		c0.112-0.179-0.421-0.988-0.057-1.454c0.23,0.592,0.718,2.075-0.092,2.295c1.663,0.444,3.095,0.12,4.855,0.438
		c-0.262,0.322,0.048,0.508-0.15,0.842c-0.304-0.135-0.362-0.504-0.55-0.748c-0.25,0.109-0.536,0.514-0.819,0.209
		c1.456,1.35,2.068,4.123,1.938,6.613c-1.187,0.133-2.497,0.127-3.834,0.088c-0.146,0.25,0.052,0.754-0.28,1.199
		c2.292,0.033,4.75-0.109,6.387-0.105c0.002,0.947,0.188,1.934-0.223,2.652c-1.061,0.418-3.342-0.387-4.089,0.686
		c-0.306-0.578-0.604-0.439-0.888-1.006c0.676,1.379,0.401,5.064-0.718,6.266c-0.635,0.047-0.891,0.076-1.741,0.051
		c-0.35-0.516-0.685-1.045-0.739-1.844c-0.738,0.408-0.353,1.328-0.198,2.049c-0.2-0.117-0.128-0.496-0.564-0.387
		c-0.205,0.02-0.271,0.197-0.251,0.475c0.157,0.406,0.153-0.398,0.474-0.223c0.126,0.459,0.268,0.904,0.289,1.465
		c1.355,0.008,3.567-0.086,5.005-0.404c0.181,0.33,0.58,0.447,0.54,0.99c0.747-0.188,0.865,0.441,1.604,0.549
		c0.463-0.404,0.854-0.887,1.105-1.529c0.097-0.045,0.01,0.756-0.15,0.842c0.043,0.18,0.149-0.043,0.349,0.014
		c-0.497,0.553,0.176,1.363-0.407,1.436c0.286,0.303,0.505,0.326,0.796,0.395c-0.379,0.494-0.019,0.391,0.088,0.73
		c-0.755,0.713-2.389-0.428-3.491,0.223c-0.398,0.074-0.127-0.496-0.563-0.387c-0.348,3.566-1.378,6.408-5.1,5.607
		c-1.898-0.412-2.167-2.318-2.49-4.459c-0.989,0.061-2.146-0.07-2.577,0.621c-0.149-0.125-0.214-0.334-0.45-0.381
		c-2.696,0.193-5.308,0.482-8.031,0.646c-0.768,1.865-4.663,1.328-5.816,0.371c-0.259,0.422-0.113,1.303-0.194,1.928
		c5.42-1.119,12.267-0.742,17.488,0.826c0.665-0.059,0.652,0.23-0.005,0.119c-3.002,0.115-6.491,0-9.529,0.344
		c-3.025,0.342-8.138,0.742-8.862,1.096c-0.995,0.484-1.377,1.627-2.278,1.846c-1.191,0.287-2.177-0.232-3.581-0.387
		c-4.853-0.529-10.721,0.273-15.737-1.119c-0.116-0.594,0.477-0.385,0.497-0.826c-1.624-0.568-3.959-1.137-4.517-3.088
		c-1.63,0.029-3.324,1.365-4.773,0.414c0.023-0.758-0.41-1.078-0.271-1.947c-0.459,0.018,0.113,0.424-0.361,0.348
		c0.095-0.648,0.286-1.191,0.309-1.924c0.208-0.064,0.466,0.373,0.579,0.023c0.481,0.354-0.487,0.109-0.478,0.346
		c0.092,0.381,0.345,0.527,0.681,0.389c-0.077,0.729-0.078,1.338,0.414,1.227c0.027-0.475-0.603-0.727-0.183-1.217
		c0.093,0.322,0.208,0.533,0.294,1.344c-0.373,0.15-0.388,0.01-0.811-0.033c0.203-0.193,0.121-0.705,0.161-1.084
		c-0.216,0.305-0.292,0.766-0.508,1.07c0.019,0.602,1.046,0.234,1.371,0.539c0.34-0.639,0.042-1.561,0.093-2.295
		c1.361-2.215,0.527-6.064-1.707-6.605c0.068-0.766-0.029-1.719,0.209-2.293c1.128-0.301,2.051-1.006,3.393-0.711
		c-0.145-0.287-0.574-0.414,0.131-0.355c-2.49-0.736-4.762,0.791-4.196,3.34c-3.219,0.891-1.362,5.283-1.363,7.934
		c-0.162,0.604-0.743-0.867-0.903-0.641c-0.794-2.16-1.61-5.033-0.711-8.262C5.526,50.439,5.5,51.086,5.474,51.73
		c0.421-1.207,1.484-2.174,1.295-3.338c0.568,0.014-0.329,0.342,0.092,0.609c0.625-0.076,0.445-0.363,1.057-0.32
		c-0.107-0.408-0.352-0.021-0.685-0.27c0.329-0.346,0.852,0.102,1.273,0.051c0.169-0.441-0.666-0.508-0.801-0.273
		c-0.283-0.336,0.768-0.684,0.937-0.205c-0.536-0.494-0.61-1.779-1.201-1.863c0.119-1.846,1.082-2.977,1.333-4.305
		c0.459,0.197,1.404,0.49,1.859-0.047c-0.459-0.268-1.361-0.15-1.622-0.066c0.7-1.875,2.255-3.826,3.26-6.041
		c0.031-0.542-0.759-0.75-0.415-1.227c-0.271-0.317-0.257,0.245-0.701,0.094c1.762-0.957,4.682-0.604,7.001-0.93
		c-1.61-0.154-4.553,0.082-6.512,0.343c1.842-2.776,6.896-2.505,11.223-2.09c2.568,0.247,5.266,0.274,6.782,1.604
		c-1.863-0.695-5.19-1.645-9.108-1.456c2.891,0.393,6.113,0.468,8.293,1.545c0.076,0.423-0.192,0.457-0.151,0.841
		c0.29,0.063,0.2-0.938,0.373-0.59c0.68,0.389-0.587,1.007-0.971,1.05c-1.065,0.12-2.409-0.949-3.452-0.743
		c0.006-0.122,0.01-0.242,0.015-0.363c-1.649,0.454-3.895-0.396-6.023-0.242c1.716,0.555,4.068,0.497,6,0.846
		c-0.495,1.834-1.328,4.125-0.934,5.895c0.531-0.033,1.271,0.172,1.626-0.055c-0.283-0.27-0.942-0.18-1.259-0.414
		c0.106-1.902,0.527-3.447,0.677-5.3c1.461,0.261,2.85,0.326,3.919,0.643c0.16-0.031,0.109-0.3,0.136-0.479
		c0.376,0.267,0.814,0.385,0.936-0.204c0.276,0.12-0.276,0.347-0.145,0.721c0.332-0.215,0.298-0.842,0.513-1.19
		c0.116,0.409-0.301,1.161-0.295,1.563c0.504,0.189,0.331-0.385,0.378-0.711c0.042,0.29,0.286,1.401,0.999,1.127
		c-0.15,2.049-0.753,4.607-1.2,6.73c-0.376-0.424,0.268-1.598,0.203-2.17c-0.718,0.494-0.783,2.707-2.626,1.832
		c-0.369,0.551-1.374,0.383-2.221,0.395c0.122,0.373,0.948,0.281,0.662,0.873c0.559,0.059,0.63,0.326,1.153,0.168
		c0.288-0.162-0.386-0.764-0.076-0.971c0.36-0.076,0.124,0.422,0.569,0.266c0.042,0.383-0.226,0.418-0.15,0.84
		c1.979,0.049,4.503-0.6,6.256,0.252c0.375-0.426,0.112-0.615-0.077-0.971c0.561,0.086,0.579-0.443,0.928,0.037
		c0.098-1.055-2.482-0.027-3.457-0.625c-0.153-0.393-0.41-0.688-0.293-1.342c0.518-0.184,0.936-0.268,1.149,0.289
		c0.068,0.414-0.436,0.182-0.484,0.465c0.578-0.043,1.242,0.496,2.293,0.697c0.265-0.08,0.073-0.678,0.155-0.963
		c-0.087-0.414,0.165,0.527,0.201,0.734c0.568-0.414,0.324,0.252,1.053-0.199c-0.066-0.725-0.116-1.941,0.207-2.293
		c0.468-0.045,1.115,0.104,1.633-0.176c-0.082,0.158-0.256,0.215-0.474,0.223c0.39-0.021,0.243,0.381,0.34,0.256
		c0.31,0.162-0.261,0.365-0.367,0.471c-0.276,0.277,0.235,0.453,0.076,0.971c0.163-0.363,0.492-0.537,0.507-1.068
		c0.223,0.721,0.003,0.459-0.068,1.691c1.724,0.439,2.258-0.119,4.055,0.162c-0.772-0.666-0.77-0.234-2.074-0.324
		c0.736-0.742-1.525-0.402-1.84-0.438c0.325-0.26,0.385-0.449,0.715-0.455c0.012-0.34-0.328,0.275-0.222-0.252
		c0.675-0.043,0.214,0.336,0.438,0.623c1.004-0.307,2.526,0.234,3.142-0.236c-0.159-1.705-0.404-3.328-0.61-4.986
		c-0.087-0.291-0.299,0.32-0.7,0.092c0.027-0.348-0.032-0.795,0.153-0.963c-0.23-0.008-0.462-0.018-0.693-0.027
		c0.329,0.1,0.258,0.971,0.067,1.213c-0.485,0.119-0.442-0.271-0.802-0.273c0.229-0.205,0.036-0.887,0.497-0.828
		c-0.421-0.426-0.979,0.066-1.172,0.316c-0.126,0.559,0.385-0.066,0.337,0.256c-0.076,0.672-0.227,1.26-0.754,1.422
		c-0.129,0.434,0.517,0.123,0.444,0.502c-0.038,0.912-0.806,0.258-0.744,1.182c-0.342-0.523,0.199-0.967,0.189-1.809
		c-0.406,0.189-0.128,0.5-0.388,0.953c-0.251,0.01-0.034-0.432-0.09-0.609c-0.215,0.01-0.088,0.404-0.252,0.475
		c0.063,0.365,0.709,0.029,0.333,0.375c-0.063,0.59-0.112-0.188-0.343-0.135c0.357,0.557-0.174,0.52,0.078,0.971
		c-0.445,0.537-0.771-1.131-1.029-0.402c-0.316-0.162-0.186-0.752-0.184-1.219c-0.778,0.555-1.684,1.342-1.829,2.227
		c-0.255-1.334-0.399-2.029-0.222-3.156c-0.486,0.826-0.188-1.844-0.5-1.958c-0.16,2.323,0.591,4.774,0.634,7.29
		c-0.79-1.834-0.337-4.863-1.122-6.703c0.275-0.167-0.211-0.392,0.246-0.354c-0.112-0.279-0.727-0.075-1.038-0.162
		c2.575-0.38,6.413,0.018,9.157,0.246c0.613,2.051,1.145,4.774,0.866,7.299c-1.336,0.215-2.933,0.137-4.527,0.061
		c-0.352,0.521-1.687,0.662-2.091,0.035c-0.313-0.1-0.242,0.23-0.473,0.223c0.521,0.43-0.147,0.328,0.092,0.609
		c-0.002,0.512-0.178-0.008-0.348-0.014c-0.018,0.191,0.037,0.463-0.135,0.479c2.557,0.238,5.65-0.01,8.465,0.1
		c0.241-0.107,0.271-0.453,0.267-0.838c0.496,0.068,0.137,0.42,0.324,0.619c0.204-0.021,0.271-0.197,0.25-0.475
		c0.336,0.117-0.085,0.387-0.024,0.604c1.333-0.168,4.836,0.494,6.734-0.092c0.751,0.611,1.559-0.047,2.313,0.215
		c-0.037,1.223-0.368,2.111-0.589,3.123c-0.737,0.258-1.804-0.398-2.455,0.387c-0.134-0.027-0.088-0.225-0.102-0.367
		c-0.509,0.055-0.476,0.723-0.627,1.184c-0.176,0.396-1.011,0.559-0.738,1.061c0.091,0.33,0.289-0.244,0.362-0.35
		c0.35,0.133-0.146,0.316-0.136,0.48c0.794-0.074,1.37-0.389,1.888-0.773c0.145,1.023,0.142,2.188,0.096,3.395
		c-1.422,0.707-3.02,1.219-4.707,1.627c0.139,0.367,0.081,0.93,0.058,1.453c0.3-0.42,0.869-0.533,1.087-1.045
		c-0.167,0.027-0.768,0.186-0.459-0.141c-0.252-0.031-0.373,0.086-0.361,0.35c-0.188-0.623,0.67-0.373,1.069-0.684
		c0.408,0.123-0.049,0.533,0.311,0.98c0.264-0.584,0.307-1.42,1.101-1.408c-0.271,0.262-0.221,1.703-0.093,2.297
		c0.164-1.201,0.539-2.145,1.362-2.123c-0.24,0.359-0.302,0.922-0.295,1.561c-0.486,0.25-0.794,0.703-0.98,1.293
		c0.587,0.643,1.498,0.766,2.173,0.813c1.021-0.668,1.578-2.807,2.533-2.439c-0.153,0.26-0.513,1.096-0.772,1.904
		c1.604-4.248,4.396-7.158,5.14-12.381c-0.783,3.375-0.955,3.873-2.564,6.07c0.332-0.436,0.47-0.828,0.518-1.311
		c-0.232,0.381-0.66,1.191-0.527,1.553c-0.353,0.107-0.194-0.277-0.212-0.492c-0.247,0.1-0.069,0.68-0.378,0.711
		c0.072,0.16,0.391-0.119,0.47-0.104c0.298,0.184-0.456,0.621-0.594,0.34c0.91-2.186,1.398-6.131,1.029-8.311
		c-2.705-0.031-5.814-0.008-8.587,0.018c-0.852,0.008-2.154,0.16-2.765-0.475c0.031-0.564,0.258,0.152,0.458,0.141
		c3.356-0.039,7.165,0.438,9.877-0.328c0.152-1.301-0.195-3.047-0.284-4.492c0.124,0.035,0.068,0.244,0.222,0.252
		c-0.257-0.281-0.693-1.008-0.396-1.711c-3.439-0.182-6.862-0.486-10.542-0.426c-0.001-0.379,0.313-0.402,0.599-0.458
		c-1.646-0.674-4.381-0.486-7.047-0.769c-0.327-0.034-0.953-0.071-0.227-0.13c2.867,0.192,6.81,0.076,10.891,0.438
		c2.134,0.19,4.254,0.57,5.912,0.118c-4.919-1.004-14.948-0.342-21.539-1.11c-0.682-0.078-1.738-0.125-2.056-0.807
		c7.849,1.118,18.662,0.983,25.811,1.643c-5.319-0.778-11.744-0.661-17.705-1.196c-2.339-0.21-5.083-0.011-7.067-0.285
		c-0.458-0.063-1.92-0.044-1.578-1.151c0.49,0.709,0.935,0.136,1.399-0.187c0.479,0.237,0.895,0.534,0.999,1.129
		c0.504,0.021,1.005,0.041,1.507,0.062c0.347-0.091-0.261-0.192-0.097-0.489c-0.473-0.214-0.903,0.429-1.028-0.403
		c0.345-0.096,0.36-0.095,0.695,0.027c0.058-0.289-0.201-0.271-0.093-0.609c0.305,0.044,0.371,0.265,0.358-0.227
		c0.534,0.413,0.697,0.929,0.399,1.59c6.715,0.669,13.414,0.795,20.261,1.178c0.16-0.398-0.438-1.043,0.063-1.57
		c0.446,0.024,1.051,1.396,0.288,1.464c0.371,0.364,0.806,0.023,1.149,0.288c0.447-1.146-0.285-2.112-0.578-2.929
		c-1.643-0.079-3.556-0.419-5.314-0.576c-0.326-0.03-1.377-0.338-1.849-0.196c0.813-0.245,1.149-0.005,2.201,0.089
		c2.046,0.182,5.919,0.389,8.09,0.81c-0.659,0.584-2.377-0.157-2.896-0.117c0.238,0.548,0.856,1.731,0.811,2.938
		c0.317-0.063,0.913,0.19,1.047-0.079c-0.416-0.116-0.089-0.675-0.545-0.869C56.299,32.963,56.242,33.46,56.569,33.452z
		 M64.637,46.363c-0.038,0.348,0.005,0.617,0.201,0.736C65.007,46.939,64.979,46.375,64.637,46.363z M40.218,41.871
		c0.868-0.086-0.167-0.242-0.811-0.033C39.779,42.119,39.979,41.895,40.218,41.871z M53.774,33.702
		c0.35,0.199,0.388-0.775,0.025-0.604C53.791,33.298,53.783,33.5,53.774,33.702z M57.211,34.808
		c0.007-0.509-0.884-0.156-1.265-0.293C55.94,35.025,56.83,34.67,57.211,34.808z M61.734,34.87c-1.13-0.443-2.565,0.223-3.354-0.256
		C59.267,35.376,61.102,34.622,61.734,34.87z M57.992,35.566c0.29,0.031,0.371-0.171,0.479-0.344
		c-0.135-0.024-0.329,0.008-0.343-0.134c0.064,0.001,0.135-0.094,0.006-0.122C58.03,35.103,57.969,35.285,57.992,35.566z
		 M46.741,35.475c1.329-0.062-0.659-0.084-1.032-0.283c0.003,0.31-1.19-0.097-0.822,0.21C45.574,35.403,46.317,35.496,46.741,35.475
		z M51.849,35.44c-0.219,0.021,0.057,0.201-0.126,0.238c-0.091,0.023-0.229-0.006-0.236,0.111c0.805-0.08,1.449,0.18,1.747-0.172
		C52.83,35.357,52.192,35.809,51.849,35.44z M62.029,36.213c0.539,0.021,1.081,0.043,1.62,0.064c0.154,0.021,0.839,0.053,0.47-0.102
		c-0.309-0.012-0.619-0.023-0.927-0.037c-0.459-0.283-1.093-0.09-1.38-0.299c-0.072,0.006-0.139,0.014-0.121,0.117
		C61.874,35.975,61.769,36.268,62.029,36.213z M55.261,37.15c-0.081-0.27-0.394-0.318-0.56-0.508
		c0.144,0.443,0.076,1.09,0.288,1.467c0.241-0.342,0.275-0.438,0.378-0.713c0.025,0.324,0.271,0.436,0.317,0.74
		c-0.335-0.393-0.128,0.391-0.478,0.344c-0.138-0.307,0.36-0.488,0.024-0.604c-0.411,1.002-0.085,3.131,0.419,4.01
		c0.484-0.008-0.113-0.455,0.255-0.596c-0.098,0.367,0.187,0.365,0.088,0.73c0.76,0.193,1.361,0.975,2.065,0.568
		c-0.293-0.141,0.229-0.402,0.256-0.596c0.084,0.391-0.119,0.455-0.256,0.596c0.385,0.156,1.904,0.02,2.786-0.01
		c0.219-0.008,0.945,0.479,0.698-0.092c-0.449,0.174-0.905-0.111-1.395,0.064c0.328-0.43,0.001-1.031-0.058-1.455
		c0.333,0.068,0.254,0.531,0.556,0.627c0.162-0.293-0.319-0.514,0.024-0.604c0.549,0.115,0.754-0.158,1.279-0.07
		c0.004,0.461,0.067,0.865,0.183,1.219c0.652,0.117,1.308-0.01,1.497,0.303c-2.137,0.008,1.078,0.205,1.848,0.195
		c0.025-0.141,0.189-0.123,0.354-0.107c0.101-0.525-0.313-0.551-0.31-0.982c0.284,0.172,0.382-0.461,0.468-0.102
		c-0.054,0.439-0.012,0.789,0.072,1.094c0.819-0.816-0.098-2.779-0.326-3.402c-0.121,0.221,0.33,0.418-0.02,0.482
		c-0.058-0.338-0.563-0.846-0.426-0.986c0.378-0.09,0.144,0.406,0.45,0.383c-0.02-0.471-0.099-0.881-0.314-0.859
		c0.33-0.291,0.114-0.463,0.155-0.963c-0.52-0.189-0.888-1.041-1.598-0.67c0.049,0.709,0.268,0.537-0.033,0.846
		c0.083,0.346,0.299,0.564,0.67,0.633c0.06-0.27,0.265-0.375,0.373-0.59c-0.214,0.447,0.515,0.572,0.2,0.734
		c-0.585-0.135-0.884,0.059-0.825,0.33c-0.592,0.24-0.867-0.865-0.79-0.518c-0.137,0.305,0.481,0.443,0.09,0.609
		c-0.334-0.387-0.482-1.068-0.756-1.361c-1.061-1.139-4.108-0.318-6.237-0.736c-0.164,0.07-0.036,0.465-0.251,0.475
		c-0.154-0.16-0.048-0.572-0.202-0.734c0.154-0.012,0.329,0.506,0.458,0.141c-0.141-0.02-0.273-0.047-0.222-0.252
		c-0.284-0.027-0.558-0.041-0.7,0.094C55.465,34.989,55.798,36.814,55.261,37.15z M11.716,37.939
		c0.016,0.449,0.492,0.455,0.303,1.102c0.954-0.943,1.424-3.105,1.575-4.536C13.001,35.688,12.305,36.754,11.716,37.939z
		 M57.848,36.287c-0.394,0.061-1.069-0.199-1.279,0.068C56.961,36.295,57.639,36.555,57.848,36.287z M30.749,37.859
		c0.02-0.365,0.354-1.023,0.053-1.33C30.46,36.744,30.466,37.598,30.749,37.859z M19.936,38.393
		C19.917,41.51,22.578,37.506,19.936,38.393L19.936,38.393z M30.353,39.053C30.083,40.625,30.824,39.395,30.353,39.053
		L30.353,39.053z M27.842,40.889c-0.162-0.436,0.396-0.057,0.361-0.348c-0.442-0.143-0.48,0.043-0.805-0.154
		C27.339,40.752,27.811,40.609,27.842,40.889z M27.118,41.586c-0.072-0.334,0.239-0.234,0.25-0.473
		c-0.621-0.072-1.379-0.293-1.737-0.07C26.277,41.078,26.46,41.561,27.118,41.586z M11.834,40.729
		c0.301,0.154,0.398,0.168,0.102,0.367c0.486,0.002,0.277,0.074,0.106,0.248c0.431-0.061,1.148,0.201,1.395-0.066
		c-0.548-0.037,0.262-0.141,0.024-0.604C13.061,40.41,12.15,40.49,11.834,40.729z M60.573,43.537
		c-0.017,1.371,0.352-1.002-0.096-0.486C60.647,43.162,60.438,43.229,60.573,43.537z M57.194,43.887
		c-0.308-0.014-0.664,0.018-0.807-0.154c-0.007,0.51,0.884,0.156,1.266,0.293c0.066-0.42,0.035-1.342-0.311-0.98
		c0.194,0.389-0.816-0.115-1.058,0.32c0.388,0.092,1.084-0.113,1.271,0.172C57.405,44.133,57.089,43.441,57.194,43.887z
		 M58.579,44.063c0.479,0.139,0.262-1.416,0.04-0.967C58.738,43.191,58.734,43.705,58.579,44.063z M22.459,42.004
		c0.506,0.045,2.711,0.461,1.622,0.064c-0.293-0.105-0.547-0.092-1.38-0.297c-0.738,0.232-1.561-0.318-2.326,0.146
		C20.971,41.971,21.716,41.938,22.459,42.004z M15.364,42.445c0.143-0.176,0.304-0.33,0.482-0.467
		c-0.503,0.01-1.224-0.064-1.048,0.08C15,42.174,14.926,42.555,15.364,42.445z M22.671,42.496c-0.468,0.059-1.226-0.207-1.51,0.061
		C21.63,42.498,22.386,42.764,22.671,42.496z M62.47,45.43c-0.005-0.33,0.403-1.297,0.159-1.082
		C62.567,44.621,62.186,45.184,62.47,45.43z M55.119,55.061c1.455-3.158,3.585-6.223,3.34-10.881
		C58.512,49.039,56.159,51.857,55.119,55.061z M56.998,54.529c1.18-2.871,3.757-6.236,3.29-9.672
		C60.31,49.262,57.754,51.426,56.998,54.529z M64.299,46.109c0.242-0.508,0.568-0.225,0.836-0.57
		C64.906,45.27,63.99,45.785,64.299,46.109z M21.093,44.248c0.795-0.082-1.107-0.148-1.381-0.297
		c-0.382,0.037-1.572-0.186-1.395,0.064C18.939,44.096,20.657,44.293,21.093,44.248z M14.252,47c1.282,0.061,1.203-3.043,0.117-2.9
		C12.926,44.289,13.067,46.943,14.252,47z M26.885,44.48c-0.24,0.297-0.848,1.027-0.29,1.441c-0.456,0.785-0.598,2.42-0.72,3.482
		c0.226,0.045,0.235-0.154,0.356-0.227c-0.174,0.375,0.258,0.738-0.034,0.844c-0.488-0.576-1.25,0.111-2.085-0.084
		c0.109,0.631,0.239,1.242,0.752,1.484c-0.119,0.422,0.273,0.633-0.144,0.721c-0.648-0.967-0.918-2.912-2.689-2.408
		c0.399,0.008,0.919,0.5,0.788,0.635c-0.283-0.197-1.09-0.492-1.381-0.297c0.116,0.006,0.231,0.01,0.348,0.014
		c0.087,0.287-0.427,0.506-0.14,0.6c0.042-0.246,0.318-0.227,0.478-0.344c-0.354,0.432,0.361-0.08,0.449,0.383
		c-1.731,0.281-4.724-0.051-6.478-0.504c-0.128,0.365-1.055,0.484-0.846,0.814c0.284-0.229,0.62-0.396,0.951-0.568
		c-0.054,0.859,2.183,0.383,3.089,1.092c-0.137,0.016-0.329-0.033-0.352,0.107c0.361,0.201,0.507,0.063,0.927,0.039
		c0.21,0.455-0.178,1.486,0.4,1.588c0.328-0.557-0.458-0.918-0.159-1.82c0.598-0.051,1.138-0.088,1.848,0.193
		c0.095,0.529-0.156,0.666-0.27,0.959c0.6,0.934,0.081,2.879,0.187,4.002c-1.405,0.998-4.841-0.199-5.826,0.613
		c1.426-0.002,3.082,0.646,4.739,0.434c1.778-0.23,4.233-2.045,4.539-3.207c0.209-0.799-0.102-1.627-0.366-2.438
		c0.16,0.012,0.257-0.047,0.353-0.107c0.195,0.316,0.333,0.688,0.42,1.107c0.824-0.07,0.87,0.254,1.612,0.307
		c0.353-2.793,0.428-4.139,0.842-6.502c-0.215-0.025-0.383-0.096-0.454-0.262c0.155,0.008,0.309,0.014,0.463,0.02
		c-0.082-0.564,0.124-0.803-0.535-1.111c0.116,0.006,0.232,0.01,0.347,0.014c0.014-0.283-0.185-0.363-0.086-0.729
		c-0.414-0.004-0.361,0.518-0.608,0.701C27.478,44.822,27.443,44.627,26.885,44.48z M14.217,47.844
		c1.268,0.137,1.124,1.631,1.641,2.488c0.107-0.027,0.328-0.521,0.135-0.479C16.074,49.477,15.619,47.166,14.217,47.844z
		 M42.799,46.938c-0.513-0.51-1.346-0.236-1.819-0.92c-0.582,0.143-0.932,0.547-0.869,1.418c-0.273,0.086-0.674,0.359-0.932,0.084
		c-0.126,2.092-0.086,3.264,0.254,5.213c1.218,0.029,2.414,0.035,3.375-0.225c0.067-1.691,0.135-3.385,0.203-5.076
		c-0.493,0.127-0.954,0.563-1.163,0.072c0.433,0.111,0.56-0.123,0.932-0.084C42.786,47.26,42.792,47.1,42.799,46.938z
		 M20.667,46.168c-0.09,0.023-0.228-0.006-0.236,0.111c0.585,0.158,0.379-0.584,0.614-0.822
		C20.53,45.271,20.461,45.922,20.667,46.168z M61.214,47.799c-0.033,0.342,0.065,0.834-0.266,0.838
		c-0.1-0.525,0.517-1.037,0.048-1.207c-0.191,1.084-0.396,2.848,0.087,3.635c0.043-0.584,0.098-1.154,0.517-1.313
		c0.085,0.236,0.025,1.205,0.192,0.977c0.214-0.59-0.101-1.01,0.285-1.32c0.278,0.172-0.223,0.357,0.097,0.488
		c0.065-0.688,0.559-1.557,0.321-2.166c0.003,0.301-0.003,0.588-0.258,0.596c0.012-0.154,0.155-0.162,0.131-0.357
		c-0.342,0.035-0.393,0.396-0.604,0.58c0.271-0.027,0.509-0.238,0.574,0.143c-0.213-0.234-0.213,0.064-0.58-0.021
		C61.547,48.41,61.418,48.068,61.214,47.799z M48.571,47.654c-0.479-0.721-1.213-0.139-1.863,0.168
		c-0.268,0.025-0.113-0.354-0.333-0.377c-0.208,2.164,3.056,1.941,2.443-0.145C48.816,47.51,48.717,47.607,48.571,47.654z
		 M46.675,48.668c-0.381-0.215-0.491-0.689-0.531-1.232c-0.667-0.082-1.188,0.004-1.743,0.051c-0.118,0.328-0.311,0.576-0.497,0.828
		c-0.332-0.375,0.305-0.297,0.15-0.842c-0.566,0.021-0.401,0.299-0.811-0.033c-0.299,1.18-0.167,2.844-0.286,4.227
		c1.309-0.373,1.76-1.717,2.766-2.432c0.091,0.338-0.282,1.125,0.188,1.096C46.075,50.08,45.545,48.248,46.675,48.668z
		 M38.425,48.939c-0.065-0.58,0.213-0.77,0.17-1.322c-0.281,0.061-0.835-0.186-0.934,0.082
		C38.038,47.996,38.028,48.664,38.425,48.939z M23.224,48.934c0.912,0.336,1.744-0.412,1.975-0.041
		c-0.081-0.346,0.176-0.307,0.14-0.6c-0.691,0.002-1.179-0.592-1.717-0.553c-0.839,0.059-0.776,0.73-1.323,1.156
		c-0.152-0.021-0.838-0.053-0.468,0.102C22.551,48.762,23.871,49.602,23.224,48.934z M46.495,50.234
		c0.259-0.17,0.661-0.18,1.053-0.199c0.186-0.801-0.267-0.984-0.768-1.121C47.025,49.66,46.293,49.955,46.495,50.234z
		 M62.102,51.711c-0.035-0.398,0.183-1.643-0.058-1.455C62.111,50.932,61.719,51.336,62.102,51.711z M49.401,50.109
		c-0.026,0.762-0.139,1.604,0.148,2.064c0.225-0.043,0.501-0.025,0.479-0.344c0.063-0.338-0.444,0.283-0.459-0.141
		c-0.085-0.561,0.463-0.402,0.499-0.828c-0.126-0.303-0.449,0.23-0.575-0.143c0.043-0.416,0.563-0.289,0.608-0.701
		C49.817,49.988,49.543,49.975,49.401,50.109z M30.01,53.324c2.099-0.48,4.665,0.656,5.696-0.256
		c-0.445-1.219-0.719-2.783-1.965-3.105c-0.887-0.23-1.971,0.352-2.765-0.475c-0.748,0.137-0.966,0.822-1.564,1.391
		c-0.665,0.029-1.177-0.498-1.342-1.266c-0.165,0.908-0.512,2.281-0.359,3.131c0.216-0.639,0.549-1.146,1.324-1.156
		C29.264,52.26,30.169,52.279,30.01,53.324z M28.876,52.672c0.076-0.252,0.301-0.334,0.26-0.715
		c-0.229-0.012-0.133-0.336-0.453-0.262C28.43,51.975,28.579,52.57,28.876,52.672z M13.338,49.504
		c-0.127-0.48,0.288-0.348,0.595-0.338c0.127-0.434-0.449-0.188-0.685-0.271C13.241,49.072,13.164,49.883,13.338,49.504z
		 M61.285,51.799c-0.102-0.23,0.363-0.391,0.02-0.484c-0.298,0.445,0.224-0.781-0.101-0.369
		C61.073,51.264,61.058,51.557,61.285,51.799z M48.609,52.498c0.296,0.07,0.675-0.4,0.371-0.592
		c-0.054,0.15-0.159,0.242-0.356,0.229c-0.662-0.697,0.326-1.061,0.415-1.678C48.03,50.516,48.123,51.967,48.609,52.498z
		 M48.256,52.604c-0.206-0.613-0.178-1.453-0.502-1.955c-0.068,0.805-0.29,1.439-0.435,2.16c0.479-0.006,0.131-0.947,0.73-0.816
		C48.02,52.289,48.005,52.576,48.256,52.604z M46.466,50.959c0.005,0.732-0.158,1.623,0.028,2.18
		c0.346,0.012,0.706,0.039,0.709-0.334c-0.2-0.078-0.686,0.119-0.689-0.15c-0.103-0.662,0.62-0.393,0.729-0.816
		c-0.199-0.078-0.687,0.119-0.689-0.148c-0.151-0.635,0.542-0.314,0.607-0.701C46.931,50.713,46.828,51.033,46.466,50.959z
		 M45.413,51.158c-0.059,0.795,0.152,1.328,0.029,2.18c0.313-0.67,0.919-1.172,0.672-2.271
		C45.773,50.908,45.721,51.018,45.413,51.158z M58.616,51.811c0.15,0.367-0.111,0.406,0.087,0.73
		c0.447,0.203,0.639-0.527,0.486-0.586c-0.326,0.43-0.485-0.338-0.101-0.365C58.776,51.488,58.847,51.82,58.616,51.811z
		 M61.845,52.305c0.181-0.441-0.128-0.514-0.111-0.125c-0.237-0.045-0.089-0.457-0.326-0.498
		C61.36,52.074,61.521,52.27,61.845,52.305z M42.883,56.383c0.11-0.365,0.039-0.615,0.146-0.721c0.333,0.068-0.141,0.91,0.191,0.977
		c0.255-0.521,0.588-1.518,0.175-1.447c0.029-0.133,0.138-0.182,0.242-0.23c0.316,0.238,0.184,0.906,0.173,1.459
		c0.314,0.293,0.892,0.074,1.273,0.053c0.096-0.391,0.183-0.299,0.498-0.828c0.245,0.15,0.522,0.271,0.796,0.395
		c0.074-0.459-0.019-0.756-0.313-0.859c0.021,0.318-0.062,0.518-0.366,0.469c-0.936-0.959-1.856-2.549-2.774-3.139
		C43.088,53.367,42.621,54.971,42.883,56.383z M15.901,55.055c-0.098-0.863,0.248-3.42,0.025-3.51
		C15.54,52.238,15.637,54.588,15.901,55.055z M21.549,53.104c-0.432-0.281-0.327-1.08-0.637-1.479
		C20.729,52.371,21.583,53.262,21.549,53.104z M27.949,52.633c0.016,0.232-0.141,0.264-0.136,0.48
		c0.352,0.049,0.466-0.369,0.701-0.092c0.042-0.322-0.07-1.082-0.318-0.74c0.389,0.145-0.325,0.025-0.131,0.357
		c0.136,0.025,0.33-0.008,0.342,0.135C28.206,52.775,28.049,52.734,27.949,52.633z M29.108,52.682
		c0.325-0.008,0.364,0.357,0.212,0.492c0.154,0.008,0.309,0.012,0.463,0.02c0.037-0.5-0.235-0.705-0.424-0.986
		C29.291,52.385,29.175,52.506,29.108,52.682z M39.534,53.1c-0.014,0.736,1.017,0.164,1.26,0.414
		c0.346,0.635,0.562,1.396,0.844,2.092c0.081-0.465-0.183-0.598-0.073-1.092c0.486,0.422,0.773,0.055,1.015,0.768
		c0.134-0.941-0.359-1.281-0.14-2.305C41.529,52.836,40.348,53.109,39.534,53.1z M28.73,53.391c0.218,0.037,0.262-0.125,0.469-0.1
		c0.045-0.316-0.021-0.523-0.329-0.498C28.768,52.93,28.706,53.109,28.73,53.391z M57.813,54.441
		c0.199-0.152,0.735,0.074,0.71-0.334C58.17,54.088,57.929,54.193,57.813,54.441z M64.86,58.115
		c-0.004-1.701-0.109-3.303-1.356-3.807C64.498,54.625,64.605,57.068,64.86,58.115z M60.965,56.869
		c0.023-0.143-0.006-0.344,0.13-0.359c-0.068,0.377,0.121,0.592,0.334,0.379c0.141-0.447-0.427-0.211-0.323-0.621
		c0.185-0.885,0.864-1.209,1.236-1.885C61.499,54.623,60.812,56.342,60.965,56.869z M60.989,59.17
		c0.838,3.361,3.36,1.174,3.426-1.557c0.076-3.066-2.682-3.75-3.083-1.215c0.211,0.014,0.667-0.186,0.836-0.57
		c-0.194,0.08-0.495-0.262-0.223-0.252c0.442,0.328,0.343-0.012,0.473-0.223c0.874,0.012,1.03,0.713,1.342,1.266
		c0.207-0.518-0.426-0.82-0.192-0.977c0.233,0.281,0.656,0.986,0.289,1.463c-0.013-0.141,0.033-0.342-0.102-0.367
		c-0.002,0.648,0.118,1.059-0.18,1.566c0.059-0.791,0.056-1.523-0.389-1.83c-0.351,0.572,0.155,2.113-0.779,2.025
		c-0.052-0.395,0.103-0.559,0.15-0.84c-0.572,0.199-0.501-0.277-1.042-0.043c-0.376,0.932,0.045,1.922,0.724,2.209
		C61.408,59.969,61.684,59.193,60.989,59.17z M62.026,56.428c0.055-0.152,0.16-0.242,0.358-0.229
		c-0.005,0.066,0.087,0.141,0.114,0.006c-0.137-0.031-0.064-0.137,0.011-0.242C62.174,55.846,61.744,56.258,62.026,56.428z
		 M27.895,53.963C29.409,54.025,27.832,52.213,27.895,53.963L27.895,53.963z M29.073,53.527c-0.09,0.438,0.222,0.484,0.559,0.506
		c0.007-0.16,0.014-0.322,0.02-0.482C29.507,53.389,29.231,53.377,29.073,53.527z M28.461,54.35c0.04-0.311,0.192,0.174,0.462,0.02
		c-0.097-0.217-0.016-0.605-0.203-0.734C28.688,53.861,28.231,54.244,28.461,54.35z M47.638,56.453
		c0.366-0.465-0.406-0.641-0.179-1.34c-0.457,0.074-0.489,0.627-0.955,0.688c0.139,0.033,0.065,0.139-0.011,0.244
		c0.32-0.076,0.224,0.248,0.453,0.26c0.055-0.207-0.159-0.316,0.015-0.363C47.164,56.393,47.408,56.078,47.638,56.453z
		 M39.272,56.723c1.674,2.115,0.638,6.674-1.696,7.557c3.003-0.295,3.845-7.699,0.923-8.557c-1.748-0.514-3.302,1.348-3.369,3.012
		C35.558,56.422,37.769,54.82,39.272,56.723z M46.454,57.012c0.476,0.076,0.189-0.586,0.025-0.605
		c0.063,0.004,0.135-0.092,0.004-0.121C46.259,56.492,46.566,56.598,46.454,57.012z M61.138,58.328
		c-0.15-0.287-0.362-1.113-0.42-1.105c-0.114,0.875,0.005,2.684,0.083,0.85c0.009-0.074,0.022-0.143,0.121-0.115
		C60.926,58.146,60.891,58.375,61.138,58.328z M37.136,63.656c2.96,0.008,3.54-7.732,0.172-7.135
		C34.565,57.008,34.245,63.648,37.136,63.656z M60.878,59.045c0.217-0.01,0.391-0.064,0.474-0.223
		c-0.18-0.061-0.084-0.387-0.454-0.262C60.891,58.723,60.884,58.883,60.878,59.045z M31.187,58.697
		c0.137-0.082,0.541-0.836,0.034-0.848C31.094,58.063,30.747,58.574,31.187,58.697z M16.686,58.596
		c-0.11,0.211-0.382,0.34-0.141,0.6c0.193,0.318,1.083-0.035,1.264,0.293c-0.775,0.15-1.642-0.453-1.862,0.168
		c0.632,0.748,2.36,0.439,3.451,0.744c0.071-0.172-0.11-0.631,0.141-0.6c0.284,0.152,0.506,0.365,0.792,0.516
		c0.053-0.205-0.16-0.314,0.015-0.361c0.922,1.193,4.697,0.65,6.004,0.725c0.036-0.537-0.722-0.311-0.783-0.758
		c0.431-0.107,0.126-0.457,0.706-0.213c0.164-0.545-0.784-0.02-0.797-0.395c0.544,0.023,1.139,0.107,1.178-0.438
		c-3.227-0.65-7.207-0.576-10.635-1.033C16.065,58.264,16.156,58.643,16.686,58.596z M34.984,62.359
		c0.005-0.385-0.19-2.572-0.091-3.514C34.635,60.016,34.675,61.406,34.984,62.359z M60.954,60.016
		c0.12,0.623,0.634,1.48,1.104,1.377C61.442,61.172,61.278,60.516,60.954,60.016z M12.221,59.99
		c0.937-0.443,2.124-0.094,3.142-0.236c-0.22-0.213-0.241-0.619-0.791-0.518C14.275,60.041,12.477,59.143,12.221,59.99z
		 M62.634,61.535c-1.155,0.514,1.128-0.105,0.362-0.35C62.985,61.521,62.776,61.473,62.634,61.535z M24.823,61.104
		c-0.988-0.041-2.192-0.521-2.886-0.359c-0.942,0.221-1.602,1.988-2.636,2.074c4.343,0.826,8.353,0.156,12.536-0.102
		c0.067-0.764-0.252-1.15-0.154-1.943C29.624,60.797,27.209,61.199,24.823,61.104z M36.306,64.105
		c-0.149-0.322-0.752-0.818-0.897-0.762C35.795,63.514,35.821,64.033,36.306,64.105z"/>
</g>
<g>
	<path fill-rule="evenodd" clip-rule="evenodd" fill="#97D300" d="M125.13,64.248c0.265,0.76-1.754,1.865-2.188,0.229
		C123.791,62.963,124.354,64.902,125.13,64.248z"/>
	<path fill-rule="evenodd" clip-rule="evenodd" fill="#97D300" d="M125.183,43.789c-0.293,0.264-0.586,0.531-0.879,0.795
		c-0.525-0.201-1.032-0.631-1.5-1.563C123.558,43.768,124.515,42.008,125.183,43.789z"/>
	<path fill-rule="evenodd" clip-rule="evenodd" fill="#97D300" d="M100.792,59.998c0.848-3.787,5.188-1.635,7.447-1.48
		c-5.631-5.221-10.938-14.396-17.051-13.754c-0.225-1.225,1.576,0.322,2.189-0.23c-1.959-1.371-3.27-1.789-4.516-1.166
		c-9.615,4.805,2.949,21.207,7.24,10.953c-0.009-1.387-2.559-3.254-1-4.346c3.037,2.236,1.814,5.684-0.33,7.295
		c-5.797,4.363-15.193-8.986-6.443-14.004c-1.673-1.662-3.678,0.723-5.241-2.264c2.51-3.15,6.62,0.15,9.669,1.176
		c-0.645-0.762-1.848-1.283-0.43-1.359c-5.771-5.68-11.632-10.327-17.789-11.335c-0.222-0.648,0.279-0.196,0.586-0.528
		C63.442,21.888,51.45,42.584,57.937,53.23c-5.379-10.717,0.225-21.303,9.568-27.307c-1.854-2.74-3.978-2.215-6.068-2.098
		c4.22-1.827,10.467,0.267,15.307,1.912c-6.636-4.925-17.612-6.274-25.719-0.669c-2.722,1.881-7.514,8.187-10.084,3.86
		c-0.5-0.838-0.398-3.598,0.707-5.304c6.107-9.431,18.514-7.71,24.875-5.562c0.623,0.135,0.836-0.529,0.293-0.265
		c1.66-0.34,5.432,2.105,7.808,4.024c-9.414-10.26-25.094-15.488-37.32-4.77c-7.373,6.466-9.762,17.849-8.049,25.354
		c-2.685-10.207,0.22-19.362,9.568-27.308c-5.06-0.726-8.804,9.892-11.482,10.958c-2.38,0.945-3.674-2.086-2.067-4.547
		c2.446-3.746,10.54-7.968,10.981-8.172c9.207-4.259,21.158-3.382,27.959-0.188c0.309-0.424-0.184-0.993-0.481-0.73
		c10.891,5.024,22.019,17.505,33.304,30.561c-0.729-6.494-9.566-12.678-10.119-18.851c1.027-0.448,0.418-1.201,1.222-1.689
		c0.905,0.014,1.796,0.181,2.675,0.501c6.494,9.003,5.879,16.668,11.738,25.551c0.675-0.512-0.724-1.416-0.914-2.088
		c1.412,1.115,2.641,4.012,3.619,5.475c-1.266-6.314-1.209-12.381,3.345-17.601c0.237,0.578-0.532,0.966-0.93,1.423
		c11.388-11.591,20.523,16.023,6.532,16.258c-0.146,0.006-1.998-0.166-2.67-0.5c-1.829-0.91-4.951-5.543-0.227-3.881
		c-0.114,1.709-1.204,0.66-1.998,1.227c2.568,2.838,5.374,2.828,8.31,1.236c0.19-0.688-1.745-0.766-1.69-2.553
		c0.699-1.043,0.557-2.242,2.154-3.115c2.006-8.57-7.531-11.767-11.843-4.463c-5.673,9.611,7.245,24.838,15.566,28.508
		c-1.678-2.729-5.79-4.371-8.326-7.637c-0.599-1.303,2.919-0.219,1.62-3.215c1.125,7.494,10.695,13.266,16.617,12.393
		c-6.892,3.041-14.168-3.371-20.53-7.689C107.106,59.5,104.489,61.758,100.792,59.998z"/>
	<path fill-rule="evenodd" clip-rule="evenodd" fill="#97D300" d="M125.771,63.088c-0.088,2.014-0.024-3.529-0.363-5.504
		c-0.422-2.457-2.143-2.596,0.291-0.264C125.763,59.25,127.16,61.432,125.771,63.088z"/>
	<path fill-rule="evenodd" clip-rule="evenodd" fill="#97D300" d="M123.718,55.027c-1.994-2.174-5.697-1.031-6.998-0.674
		C119.204,52.73,121.567,52.596,123.718,55.027z"/>
	<path fill-rule="evenodd" clip-rule="evenodd" fill="#97D300" d="M104.067,46.541c-1.451-3.047,0.906-8.143,0.447-12.068
		C106.038,37.533,102.962,42.492,104.067,46.541z"/>
	<path fill-rule="evenodd" clip-rule="evenodd" fill="#97D300" d="M80.018,61.855c1.708-2.828,3.612-5.002,2.278-7.889
		c-1.271-2.744-4.033-1.893-5.034-4.783c0.294-1.783,0.983-1.5,2.343-2.119C84.851,51.014,85.097,58.473,80.018,61.855z"/>
	<path fill-rule="evenodd" clip-rule="evenodd" fill="#97D300" d="M83.432,50.023C83.86,44.641,85.323,45.279,83.432,50.023
		L83.432,50.023z"/>
	<path fill-rule="evenodd" clip-rule="evenodd" fill="#97D300" d="M88.036,13.788c1.884,0.169,3.77,0.324,5.48,2.629
		c-2.486,0.092-3.113-3-5.24-2.264c-2.145,0.742-3.633,5.539-3.586,7.322c0.055,2.057,0.441,3.745,0.189,0.994
		C84.461,17.841,84.038,17.876,88.036,13.788z"/>
	<path fill-rule="evenodd" clip-rule="evenodd" fill="#97D300" d="M63.402,9.802c-1.409,0.594-4.9-1.973-7.136-2.301
		C57.683,6.824,61.179,9.31,63.402,9.802z"/>
	<path fill-rule="evenodd" clip-rule="evenodd" fill="#97D300" d="M66.632,42.115c1.205,2.051,2.662,3.957,2.161,6.996
		C69.75,48.713,69.144,42.979,66.632,42.115z"/>
	<path fill-rule="evenodd" clip-rule="evenodd" fill="#97D300" d="M65.778,42.234c-0.546-1.705-2.729-0.557-3.217,1.113
		c0.193,0.514,0.625,0.887,1.248,1.152C65.024,44.279,63.769,40.754,65.778,42.234z"/>
	<path fill-rule="evenodd" clip-rule="evenodd" fill="#97D300" d="M60.113,42.145c-2.202,3.158-1.696,7.979,1.897,9.025
		c1.578,0.057,3.379-4.986,0.525-4.059c-0.184,0.859,0.254,1.354,1.094,1.617c-0.328,1.182-1.025,1.164-1.469,1.977
		C59.074,49.246,58.42,46.373,60.113,42.145z"/>
	<path fill-rule="evenodd" clip-rule="evenodd" fill="#97D300" d="M68.483,50.041c-3.084,7.059-12.188,2.666-10.998-4.873
		C54.812,51.605,65.667,59.131,68.483,50.041z"/>
</g>
</svg>
