<?xml version="1.0" encoding="utf-8"?>
<!-- Generator: Adobe Illustrator 13.0.0, SVG Export Plug-In . SVG Version: 6.00 Build 14948)  -->
<!DOCTYPE svg PUBLIC "-//W3C//DTD SVG 1.1//EN" "http://www.w3.org/Graphics/SVG/1.1/DTD/svg11.dtd">
<svg version="1.1" id="Layer_1" xmlns="http://www.w3.org/2000/svg" xmlns:xlink="http://www.w3.org/1999/xlink" x="0px" y="0px"
	 width="180px" height="90px" viewBox="0 0 180 90" enable-background="new 0 0 180 90" xml:space="preserve">
<g>
	<path fill-rule="evenodd" clip-rule="evenodd" fill="#2B2B2B" stroke="#97D300" stroke-width="0.1499" d="M172.002,7.793
		c0.794,0.146,0.687,2.516-0.952,2.075C170.189,8.343,172.158,8.818,172.002,7.793z"/>
	<path fill-rule="evenodd" clip-rule="evenodd" fill="#2B2B2B" stroke="#97D300" stroke-width="0.1499" d="M154.385-2.608
		c0.073,0.396,0.148,0.794,0.223,1.191c-0.45,0.368-1.086,0.606-2.135,0.553C153.51-1.162,152.497-2.91,154.385-2.608z"/>
	<path fill-rule="evenodd" clip-rule="evenodd" fill="#2B2B2B" stroke="#97D300" stroke-width="0.1499" d="M155.54,27.45
		c-2.82-2.676,1.318-5.475,2.64-7.421c-7.465,2.403-18.168,2.514-20.828,8.317c-1.173-0.416,1.108-1.249,0.953-2.079
		c-2.212,1.062-3.263,2.025-3.38,3.457c-0.911,11.047,19.842,8.089,13.253-0.945c-1.2-0.695-4.149,0.646-4.272-1.303
		c3.525-1.591,5.855,1.251,6.118,3.986c0.714,7.404-15.738,9.068-15.467-1.313c-2.313,0.659-1.311,3.663-4.707,3.552
		c-1.396-3.844,3.608-5.856,6.098-8.069c-0.997,0.192-2.077,1.005-1.398-0.303c-7.936,2.297-15.022,5.197-19.13,10.204
		c-0.675-0.13-0.021-0.352-0.148-0.793c-12.235,6.894-0.689,28.11,11.903,27.687c-12.071-0.604-18.258-10.982-18.522-22.393
		c-3.338,0.275-4.001,2.443-5,4.375c0.644-4.705,5.734-9.244,9.698-12.748c-7.738,3.454-14.673,12.607-14.1,22.707
		c0.192,3.391,3.111,10.875-1.971,10.99c-0.986,0.023-3.313-1.465-4.203-3.318c-4.923-10.244,3.083-20.49,8.279-25.103
		c0.444-0.492-0.016-1.018-0.073-0.397c0.579-1.659,4.671-3.801,7.575-4.96C95.06,34.824,82.307,46.228,85.124,62.607
		c1.7,9.878,10.263,17.781,17.636,20.044c-10.214-2.76-16.584-9.996-18.523-22.393c-3.286,4.166,3.904,12.894,3.415,15.833
		c-0.436,2.612-3.73,2.237-5.009-0.447c-1.945-4.087-1.331-13.478-1.275-13.976c1.169-10.405,8.207-20.67,14.538-25.149
		c-0.203-0.49-0.953-0.336-0.884,0.064c10.06-7.217,26.674-10.872,43.867-14.377c-5.982-2.633-15.964,2.156-21.578-0.472
		c0.153-1.147-0.816-0.982-0.815-1.951c0.487-0.802,1.101-1.516,1.838-2.141c11.18-1.264,17.467,3.167,28.21,2.411
		c-0.086-0.864-1.602-0.068-2.282-0.239c1.704-0.701,4.851-0.336,6.626-0.471c-6.112-2.062-11.314-5.183-13.423-11.906
		c0.622,0.081,0.553,0.967,0.739,1.555c-4.012-16.069,24.61-10.282,17.457,2.374c-0.074,0.132-1.194,1.707-1.837,2.139
		c-1.744,1.179-7.383,1.632-3.465-1.762c1.414,0.968-0.063,1.413,0.005,2.412c3.8-0.866,5.267-3.385,5.438-6.819
		c-0.492-0.519-1.578,1.175-3.093,0.221c-0.531-1.153-1.64-1.634-1.552-3.506c-6.339-6.134-14.108,0.794-10.076,8.353
		c5.307,9.946,25.23,6.076,32.772,0.479c-3.236,0.123-6.813,2.976-10.966,3.596c-1.438-0.124,1.346-2.726-1.922-3.078
		c7.056,2.786,17.066-2.87,19.428-8.618c-1.001,7.713-10.357,10.988-17.428,14.503C158.431,21.54,159.002,25.027,155.54,27.45z"/>
	<path fill-rule="evenodd" clip-rule="evenodd" fill="#2B2B2B" stroke="#97D300" stroke-width="0.1499" d="M171.338,6.633
		c1.69,1.095-3.057-1.767-4.938-2.461c-2.342-0.866-3.365,0.605-0.075-0.396C168.022,4.697,170.641,4.548,171.338,6.633z"/>
	<path fill-rule="evenodd" clip-rule="evenodd" fill="#2B2B2B" stroke="#97D300" stroke-width="0.1499" d="M163.308,4.392
		c-2.926,0.687-3.887,4.583-4.262,5.93C158.952,7.275,160.078,5.089,163.308,4.392z"/>
	<path fill-rule="evenodd" clip-rule="evenodd" fill="#2B2B2B" stroke="#97D300" stroke-width="0.1499" d="M145.655,17.706
		c-3.39-0.243-6.545-4.934-10.173-6.51C138.923,11.381,141.583,16.647,145.655,17.706z"/>
	<path fill-rule="evenodd" clip-rule="evenodd" fill="#2B2B2B" stroke="#97D300" stroke-width="0.1499" d="M146.221,47.004
		c-1.54-2.962-2.414-5.767-5.606-6.031c-3.033-0.251-3.751,2.655-6.771,2.089c-1.383-1.164-0.776-1.641-0.596-3.172
		C139.411,37.188,145.974,40.741,146.221,47.004z"/>
	<path fill-rule="evenodd" clip-rule="evenodd" fill="#2B2B2B" stroke="#97D300" stroke-width="0.1499" d="M137.81,37.958
		C133.395,34.851,134.713,33.863,137.81,37.958L137.81,37.958z"/>
	<path fill-rule="evenodd" clip-rule="evenodd" fill="#2B2B2B" stroke="#97D300" stroke-width="0.1499" d="M108.978,15.496
		c1.136-1.604,2.263-3.215,5.148-3.582c-1.227,2.275-4.224,1.271-4.706,3.55c-0.488,2.297,2.867,6.058,4.431,6.918
		c1.803,0.993,3.461,1.502,0.957,0.333C110.596,20.749,110.402,21.146,108.978,15.496z"/>
	<path fill-rule="evenodd" clip-rule="evenodd" fill="#2B2B2B" stroke="#97D300" stroke-width="0.1499" d="M92.591,35.552
		c-0.229,1.563-4.278,3.392-5.736,5.23C87.014,39.169,90.997,37.295,92.591,35.552z"/>
	<path fill-rule="evenodd" clip-rule="evenodd" fill="#2B2B2B" stroke="#97D300" stroke-width="0.1576" d="M122.157,49.01
		c2.402-0.042,4.813-0.384,7.172,1.604C129.487,49.554,124.223,47.196,122.157,49.01z"/>
	<path fill-rule="evenodd" clip-rule="evenodd" fill="#2B2B2B" stroke="#97D300" stroke-width="0.1576" d="M121.812,49.834
		c-1.757-0.373-1.915,2.164-0.73,3.447c0.545,0.087,1.095-0.111,1.65-0.535C123.18,51.546,119.479,50.888,121.812,49.834z"/>
	<path fill-rule="evenodd" clip-rule="evenodd" fill="#2B2B2B" stroke="#97D300" stroke-width="0.1576" d="M118.756,54.865
		c1.565,3.571,5.99,5.558,8.781,2.868c0.879-1.387-2.522-5.553-3.222-2.526c0.644,0.602,1.3,0.459,1.97-0.16
		c0.845,0.892,0.465,1.507,0.933,2.315C124.336,59.39,121.515,58.523,118.756,54.865z"/>
	<path fill-rule="evenodd" clip-rule="evenodd" fill="#2B2B2B" stroke="#97D300" stroke-width="0.1576" d="M129.967,51.36
		c4.467,6.337-4.106,12.271-9.984,7.39C124.129,64.404,136.326,58.485,129.967,51.36z"/>
</g>
<g>
	<path fill-rule="evenodd" clip-rule="evenodd" fill="#2B2B2B" d="M11.16,18.271c1.169,0.903,3.061,0.622,3.51-0.699
		C13.335,16.659,11.941,17.359,11.16,18.271z"/>
	<path fill-rule="evenodd" clip-rule="evenodd" fill="#2B2B2B" d="M58.946,17.771c0.262-0.012,0.4-0.146,0.412-0.399
		C59.097,17.383,58.958,17.517,58.946,17.771z"/>
	<path fill-rule="evenodd" clip-rule="evenodd" fill="#2B2B2B" d="M23.649,20.071c-0.448,0.114-0.341,1.019-0.309,1.3
		c0.12-0.017,0.183,0.021,0.206,0.1C23.963,21.282,24.107,20.258,23.649,20.071z"/>
	<path fill-rule="evenodd" clip-rule="evenodd" fill="#2B2B2B" d="M21.792,21.771c-3.369,0.387-6.686,0.736-9.393,0.801
		c0.919,0.313,3.567,0.771,4.851,0.5c0.171-0.037,0.386-0.014,0.413-0.301c0.697,0.626,2.525,0.154,3.715,0.301
		C21.586,22.706,21.726,22.274,21.792,21.771z"/>
	<path fill-rule="evenodd" clip-rule="evenodd" fill="#2B2B2B" d="M37.066,22.071c-0.466,0.048-0.372,0.64-0.413,1.1
		C37.193,23.194,37.052,22.558,37.066,22.071z"/>
	<path fill-rule="evenodd" clip-rule="evenodd" fill="#2B2B2B" d="M36.446,22.071c-0.408-0.025-0.53,0.746-0.31,1
		C36.579,23.066,36.412,22.471,36.446,22.071z"/>
	<path fill-rule="evenodd" clip-rule="evenodd" fill="#2B2B2B" d="M37.582,22.171c-0.305,0.117-0.416,0.799-0.207,1.1
		C37.681,23.153,37.792,22.472,37.582,22.171z"/>
	<path fill-rule="evenodd" clip-rule="evenodd" fill="#2B2B2B" d="M38.201,22.271c-0.343,0.109-0.466,0.825-0.31,1.101
		C38.284,23.31,38.375,22.564,38.201,22.271z"/>
	<path fill-rule="evenodd" clip-rule="evenodd" fill="#2B2B2B" d="M28.603,25.271c-0.379-0.034-0.313,0.364-0.414,0.601
		C28.569,25.905,28.502,25.507,28.603,25.271z"/>
	<path fill-rule="evenodd" clip-rule="evenodd" fill="#2B2B2B" d="M37.272,26.371c0.06,0.447,1.049,0.466,1.238,0.2
		C38.393,26.186,37.64,26.225,37.272,26.371z"/>
	<path fill-rule="evenodd" clip-rule="evenodd" fill="#2B2B2B" d="M52.856,33.371c0.199,0.341,0.676,0.412,0.723,0.899
		c0.131-0.139,0.505-0.043,0.516-0.3c0.098,0.688,0.412-0.418,0.619,0.2c0.181-0.291,0.067-0.868,0.309-1.1
		c-0.075,0.159-0.505-0.023-0.412,0.3C53.976,32.521,53.666,33.295,52.856,33.371z"/>
	<path fill-rule="evenodd" clip-rule="evenodd" fill="#2B2B2B" d="M51.618,33.171c-0.466-0.084-0.515,0.234-0.826,0.3
		c0.047,0.487-0.108,1.172,0.103,1.5c0.37-0.008,0.597-0.155,0.929-0.2C51.9,34.098,51.751,33.643,51.618,33.171z"/>
	<path fill-rule="evenodd" clip-rule="evenodd" fill="#2B2B2B" d="M82.684,35.871c0-0.066,0-0.134,0-0.2
		c-3.866-0.387-7.535-0.967-11.25-1.5C74.797,35.197,78.797,35.226,82.684,35.871z"/>
	<path fill-rule="evenodd" clip-rule="evenodd" fill="#2B2B2B" d="M5.484,22.371c0.494,0.911,1.175,1.601,2.064,2.1
		c3.442,1.931,9.248,2.657,14.76,2.9c4.118,0.181,8.366,0.222,11.042,1.399c0.089-0.299,0.669-0.12,0.826-0.1
		c-0.192,0.014-0.346,0.065-0.413,0.2c5.201,1.139,12.032-0.267,16.307,1.5c0.198-0.309,0.952-0.078,1.239-0.3
		c-1.62-0.084-3.233-0.846-4.542-1.101c0.326,0.063-0.253,0.04-0.516,0c-3.894-0.591-7.117-1.018-9.701-2.399
		c1.106-1.648,2.681-0.163,3.922-0.101c0.261,0.014,0.642-0.177,0.929-0.2c2.102-0.166,3.601,0.575,5.366,1.101
		c1.492,0.443,3.309,1.23,4.335,1.2c1.156-0.035,2.49-0.928,3.405-1.4c1.101-0.567,2.099-1.088,2.994-1.9
		c-0.413-0.033-1.027,0.129-1.032-0.3c0.643-0.438,1.738,0.072,2.683,0.3c1.008,0.243,2.046,0.678,2.994,0.5
		c-1.343-0.266-2.449-0.76-3.715-1.1c0.305-1.122-0.903-1.482-1.342-2.2c2.3-3.805,4.912-7.84,6.916-11.6
		c-1.362-0.214-1.992,1.223-2.684,2c-2.346,2.638-4.737,5.34-6.915,8c0.604,0.313,1.215,0.622,1.135,1.6
		c-3.078,0.167-5.718-1.313-8.462-1.5c-0.243-0.017-0.574,0.104-0.827,0.101c-6.554-0.11-12.121-2.386-18.474-2.5
		c3.848,0.922,7.402,1.403,10.733,2c1.418,0.253,3.13,0.186,4.128,0.899c-0.591,0.169-0.289,0.34,0.104,0.5
		c-0.313,0.063-0.889-0.128-1.032,0.101c-0.032,0.23,0.298,0.11,0.31,0.3c-0.344,0-0.688,0-1.032,0
		c-0.031,0.23,0.298,0.111,0.31,0.3c-0.617-0.099-1.063-0.16-1.342,0.4c-0.006-0.338,0.187-0.427-0.103-0.601
		c-0.437,0.077-0.064,0.938-0.516,1c0.014-0.313,0.314-0.977-0.104-1.1c-0.288,0.22,0.002,1.001-0.516,1
		c0.059-0.217,0.247-0.819,0-1c-0.307,0.168-0.297,0.645-0.309,1.1c0.846,0.334,2.145,0.204,2.477,0.601
		c-0.078-0.245-0.308-0.021-0.104,0.1c1.923,0.36,3.952,1.768,6.296,2c3.681,0.365,7.03-0.384,9.494-1.6
		c0.364-0.35,0.83-1.128,1.445-0.9c-1.373,0.807-2.606,1.954-4.335,2.4c-1.874,0.483-4.233,0.696-6.502,0.5
		c-2.012-0.175-4.021-1.161-5.986-1.801c-2.112-0.687-4.177-1.25-6.09-1.8c-0.243-0.138,0.49-0.955-0.103-1.1
		c-0.411,0.035,0.046,0.912-0.413,0.899c-0.646-0.207-1.791,0.069-2.064-0.5c0.393-0.554,1.848,0.057,2.168-0.1
		c-1.766-1.153-4.624-0.942-6.605-1.3c-0.148,0.056-0.252,0.156-0.31,0.3c-0.366,0.021-0.204-0.469-0.62-0.4
		c-0.149,0.188-0.151,0.521-0.413,0.601c-0.214-0.158,0.063-0.794-0.413-0.7c-0.303,0.14-0.143,0.728-0.412,0.9
		c-0.682-0.191-2.031-0.17-2.064,0.6c-0.085-0.282,0.146-0.259,0.103-0.5c-0.513-0.025-0.774-0.143-1.445-0.2
		c0.488,0.464-0.239,0.054-0.516,0.4c-0.07,0.401-0.512,0.852-0.31,1.2c2.95-0.098,6.504-0.634,8.876-0.9
		c0.367-0.155,0.062,0.34,0.31,0.3c0.165-0.049,0.482-0.761,0.619-0.2c-0.326,0.512-1.184,0.325-1.858,0.4
		c-2.676,0.299-6.296,1.274-8.256,0.4c-0.1,0.27-0.259,0.482-0.619,0.5c-5.504-0.102-11.458,0.234-15.275-1.5
		C5.484,22.171,5.484,22.271,5.484,22.371z M60.184,15.871c0.35,0.032,0.542-0.601,0.826-0.3c-0.433,0.469-0.537,0.658-1.342,0.699
		c0.362-0.517,0.881-1.412,1.342-1.5C60.742,15.145,60.369,15.416,60.184,15.871z M59.049,16.871c0.29-0.019,0.282-0.326,0.516-0.4
		c-0.061,0.26,0.042,0.36,0.31,0.3c-0.354,0.689-0.708,1.38-1.444,1.7c0.023-0.2-0.46-0.404-0.104-0.6
		c0.022,0.112,0.115,0.155,0.207,0.2c-0.004-0.138,0.048-0.22,0.103-0.301c-0.132,0.006-0.142,0.129-0.309,0.101
		c0.135-0.426,0.421-0.628,0.413-0.2c0.176-0.129,0.405-0.207,0.412-0.5c-0.121-0.016-0.292,0.018-0.31-0.1
		C59.023,16.883,59.241,17.208,59.049,16.871z M56.985,20.071c-0.264-0.172-0.361,0.114-0.516-0.101
		c0.524-0.491,0.829-1.197,1.445-1.6c-0.199,0.574-0.73,0.825-0.929,1.399c0.132,0.006,0.143,0.129,0.31,0.101
		c0-0.101,0.083-0.119,0.104-0.2c-0.486,0.178,0.349-0.464,0.619-0.5c-0.071,0.365-0.391,0.487-0.516,0.8
		c-0.393,0.172-0.644-0.296-0.723-0.1C56.779,20.003,56.96,19.962,56.985,20.071z M31.802,22.571
		c-0.032-0.232,0.017-0.385,0.104-0.5c0.121,0.016,0.292-0.018,0.31,0.1C32.066,22.293,32.077,22.57,31.802,22.571z M24.784,24.771
		c-0.038,0.396-0.145,0.727-0.309,1c-0.31,0-0.619,0-0.929,0c-0.097-0.084-0.22-0.637,0-0.699c0.019,0.147,0.25,0.091,0.413,0.1
		c0.017,0.149-0.037,0.369,0.103,0.4c0.211-0.097,0.224-0.385,0.207-0.7c-0.243-0.003-0.304,0.172-0.619,0.1
		C23.563,24.262,24.463,24.709,24.784,24.771z M24.784,25.871c0.182-0.358,0.12-0.951,0.516-1.101
		c0.259-0.048-0.249,0.459,0.104,0.5c0.171-0.2,0.277-0.465,0.619-0.5c0.077,0.254-0.063,1.04-0.516,1.101
		c-0.088-0.233,0.361-0.431,0.103-0.5C25.423,25.623,25.208,25.849,24.784,25.871z M27.777,24.971c0.023,0.456-0.173,0.698-0.31,1
		c-0.241,0-0.481,0-0.723,0c-0.101-0.397,0.577-0.041,0.516-0.399c-0.183-0.023-0.517,0.101-0.413-0.2
		c0.15-0.055,0.533,0.116,0.516-0.101c-0.042-0.192-0.4-0.078-0.31-0.399C27.38,24.822,27.419,25.051,27.777,24.971z M26.125,25.971
		c-0.149-0.27,0.232-0.733,0.311-1.1c0.103,0,0.206,0,0.309,0C26.666,25.36,26.667,25.93,26.125,25.971z M29.016,25.071
		c-0.019,0.448-0.215,0.725-0.413,1c-0.275,0-0.55,0-0.826,0c0.045-0.456,0.265-0.743,0.412-1.101
		C28.573,24.9,28.633,25.142,29.016,25.071z M30.667,26.971c0.848-0.209,0.904-1.8,1.341-1.8
		C31.7,25.839,31.363,27.011,30.667,26.971z M30.254,25.271c-0.213,0.228-0.211,0.663-0.413,0.9c-0.297-0.012-0.676,0.055-0.825-0.1
		c0.073-0.396,0.233-0.708,0.412-1C29.764,25.079,30.063,25.122,30.254,25.271z M30.564,26.871c-0.182-0.195-0.974-0.317-0.929-0.4
		c0.492,0.043,0.772-0.119,1.032-0.3C30.619,26.558,30.177,26.565,30.564,26.871z M52.856,26.671
		c-0.565,0.253-0.854,0.771-1.238,1.2C51.727,27.294,52.696,26.537,52.856,26.671z M52.238,27.471
		c-0.049-0.194,0.277-0.511,0.31-0.3c-0.15,0.289,0.238-0.304,0.309,0.1c0-0.055,0.084-0.113,0.103,0
		C52.771,27.587,52.643,27.139,52.238,27.471z"/>
	<path fill-rule="evenodd" clip-rule="evenodd" fill="#2B2B2B" d="M16.424,0.171c-0.48,0.033-0.335,0.866-0.413,1
		C16.243,1.324,16.34,0.493,16.424,0.171z"/>
	<path fill-rule="evenodd" clip-rule="evenodd" fill="#2B2B2B" d="M11.883,17.071c0.013-0.18-0.126-0.211-0.103-0.4
		c-0.206,0.135-0.492,0.19-0.723,0.3c-0.029,0.162,0.098,0.172,0.103,0.3c-0.686-0.132-0.665,0.422-1.237,0.4
		c0.031,0.136,0.258,0.083,0.412,0.1c-0.418,0.297-0.038,0.227-0.207,0.601C10.414,18.045,11.208,17.351,11.883,17.071z"/>
	<path fill-rule="evenodd" clip-rule="evenodd" fill="#2B2B2B" d="M17.043,19.771c0.082-1.312-0.667-1.82-1.755-2
		c-0.576,0.376-1.221,0.684-1.444,1.4c0.424,0.188,0.843,0.384,1.342,0.5c-0.003-0.098-0.126-0.077-0.207-0.1
		c0.663-0.158,1.198-0.44,1.858-0.601c-0.099,0.496-0.882,0.777-1.135,0.8C15.598,20.115,16.75,19.935,17.043,19.771z"/>
	<path fill-rule="evenodd" clip-rule="evenodd" fill="#2B2B2B" d="M22.204,18.571c0.572-0.193,1.481,0.079,1.857,0.399
		c0.153-0.55-1.259-0.444-1.753-0.7C22.157,18.356,22.058,19.053,22.204,18.571z"/>
	<path fill-rule="evenodd" clip-rule="evenodd" fill="#2B2B2B" d="M34.279,20.671c0.225-0.168,0.779-0.014,1.032,0.1
		C35.643,20.571,34.313,20.197,34.279,20.671z"/>
	<path fill-rule="evenodd" clip-rule="evenodd" fill="#2B2B2B" d="M55.023,31.071c1.784,1.038,4.662,1.017,6.916,1.6
		C60.055,32.129,57.258,31.606,55.023,31.071z"/>
	<path fill-rule="evenodd" clip-rule="evenodd" fill="#2B2B2B" d="M49.244,37.171c-0.426,1.053-3.417,0.813-3.921-0.3
		c-0.315-0.055,0.604,0.783,1.032,1c0.808,0.408,1.967,0.647,2.992,0.5c-0.016-0.117-0.188-0.085-0.31-0.101
		c0.393-0.133,0.598-0.076,1.032-0.3c-0.031-0.136-0.258-0.083-0.412-0.1c0.402-0.661,0.166-1.562,1.548-1.4
		c-0.322,0.72-0.377,0.547-0.826,1.101c0.588-0.132,1.131-1.171,1.445-1.9c-0.11-0.227-0.649-0.038-0.929-0.1
		c-0.504-2.085-1.125-4.137-3.302-4.101c-1.956,0.033-3.863,2.69-2.375,4.9C45.605,36.77,47.91,38.018,49.244,37.171z"/>
</g>
<line fill="none" stroke="#2A2C2A" stroke-width="0.5" x1="65.389" y1="25.041" x2="129.5" y2="34"/>
<line fill="none" stroke="#2A2C2A" stroke-width="0.5" x1="83.694" y1="35.771" x2="132.407" y2="42.117"/>
<line fill="none" stroke="#2A2C2A" stroke-width="0.5" x1="132.488" y1="42.341" x2="174.613" y2="47.546"/>
</svg>
